<svg xmlns="http://www.w3.org/2000/svg" viewBox="0 0 1843.33 605.57"><defs><style>.cls-1,.cls-4{fill:#2979ba;}.cls-10,.cls-2,.cls-8,.cls-9{fill:#fbb040;}.cls-3{fill:#24478b;}.cls-4{font-size:100px;font-family:DrukTextWideWeb-Medium, Druk Text Wide Web;font-weight:500;letter-spacing:-0.02em;}.cls-5{letter-spacing:-0.06em;}.cls-6,.cls-7,.cls-9{letter-spacing:0.03em;}.cls-7{fill:#000;}.cls-8{letter-spacing:0.01em;}.cls-10{letter-spacing:0.03em;}</style></defs><g id="Layer_1" data-name="Layer 1"><path class="cls-1" d="M1318.59,821.86l-7.38-.11c-2.9-.09-6.23-.18-10-.26-.93,0-1.88,0-2.86-.07l-3-.12-6.42-.23c-2.24-.05-4.56-.19-7-.31l-7.46-.36c-10.28-.63-21.84-1.34-34.37-2.6s-26.05-2.72-40.23-4.87-29-4.73-44.24-8c-15.06-3.22-30.73-7.16-46.41-11.73s-31.82-9.69-48.24-14.57-33.21-9.41-50.18-12.79l-3.08-.6-.76-.16-.2,0-.32-.07-.4-.06-1.6-.28-6.36-1.08-3.17-.53c-1.05-.17-2.11-.36-3.16-.49l-6.32-.84-6.28-.8-6.26-.6-6.21-.57-1.54-.14-1.55-.1-3.08-.18-6.12-.34-3-.17c-1,0-2-.05-3-.08-4-.09-8-.18-11.95-.22l-5.87.07-5.81.1c-1.92,0-3.83.12-5.72.21l-5.65.29-2.79.15c-.93,0-1.86.08-2.78.17l-5.47.47-5.39.47c-.89.08-1.77.15-2.65.24l-2.64.33c-3.36.41-6.67.81-9.91,1.23-.17,2.65-.27,5.32-.27,8,0,3.53.16,7,.46,10.46h.8c3.26,0,6.57,0,9.94.07h2.53l2.56.07L903,781l5.24.14c.88,0,1.76.08,2.64.13l2.67.14,5.38.29c1.8.1,3.61.16,5.43.33l5.5.44,5.56.42,11.25,1.14c.94.1,1.89.18,2.84.3l2.85.38,5.73.73,2.88.36,1.44.19,1.45.23,5.79.9,5.82.89,5.83,1.08,5.87,1.06c1,.16,2,.39,2.93.59l2.93.63,5.88,1.24,1.48.31.37.08h.07l.18,0,.76.18,3,.72c15.73,3.67,31.7,8.31,47.86,13.09s32.54,9.73,49.08,13.95c2.06.54,4.14,1,6.21,1.54l3.1.76,3.11.72,3.1.7,1.72.38,1.51.31,6,1.24,3,.61,1.5.3,1.57.27,6.24,1.1,3.1.55c1,.18,2.06.35,3.08.49l6.08.89c16.17,2.31,31.88,3.67,46.77,4.3s29,.43,41.93-.19l4.8-.26c1.58-.08,3.15-.15,4.69-.29,3.09-.25,6.11-.49,9-.75l2.19-.18,2.15-.23,4.23-.47c2.77-.32,5.46-.59,8.07-.95l7.54-1.07,3.57-.52c1.17-.17,2.31-.39,3.42-.58l6.43-1.13c2-.36,4-.72,5.83-1.11,3.69-.77,7-1.48,9.81-2.11s5.26-1.28,7.21-1.77c3.9-1,6-1.56,6-1.56S1322.6,821.93,1318.59,821.86Z" transform="translate(-262.33 -617.76)"/><path class="cls-1" d="M839,770.82l-.11,0-1.92.54q-3.81,1.07-7.35,2.09c-1.18.35-2.34.66-3.47,1l-3.32,1.08-6.2,2.06-2.89,1-2.74,1c-3.54,1.33-6.68,2.54-9.39,3.61s-4.95,2.14-6.78,3c-3.68,1.62-5.62,2.54-5.62,2.54s2.13-.29,6.1-.9l7.3-1.15c2.88-.36,6.17-.78,9.83-1.29l2.82-.39,3-.32,6.38-.71,3.38-.38c1.15-.13,2.33-.21,3.53-.32l7.42-.65.51,0Q839,776.73,839,770.82Z" transform="translate(-262.33 -617.76)"/><path class="cls-2" d="M1113.81,847.65q-4.89-1.89-9.76-3.71a127.38,127.38,0,1,1-103.88-201.07c61.51,0,113,43.81,124.83,101.87,9.14,3.54,18.11,7.17,27,10.57A152.67,152.67,0,1,0,1108,878.1a152.88,152.88,0,0,0,20.18-24.92C1123.37,851.34,1118.58,849.47,1113.81,847.65Z" transform="translate(-262.33 -617.76)"/><path class="cls-3" d="M911.78,730.64s1.46-.81,4.22-2.29c1.38-.73,3.08-1.65,5.09-2.68l3.33-1.55,3.8-1.73,2.07-.95c.71-.32,1.45-.59,2.2-.89l4.74-1.88,2.54-1,.65-.26.66-.23,1.35-.46,5.65-1.91,1.47-.49c.5-.17,1-.35,1.51-.49l3.11-.89,6.5-1.84c2.24-.56,4.56-1.09,6.93-1.65l3.6-.83c1.22-.25,2.46-.47,3.71-.71,2.5-.47,5.05-1,7.67-1.4l8-1.13,2.06-.28c.68-.09,1.38-.14,2.07-.21l4.22-.4,4.29-.4c.72-.07,1.44-.09,2.17-.13l2.19-.11,4.42-.22,2.24-.1c.75,0,1.5,0,2.25,0l4.55,0h4.61q4.63.16,9.36.37c1.58,0,3.16.19,4.75.32l4.79.4c3.21.23,6.43.7,9.68,1.12l2.44.33,1.22.16c.41.05.82.11,1.22.18l4.9.86,4.92.88c1.64.33,3.27.72,4.92,1.08l4.94,1.12,1.24.29,1.29.34,2.36.62a380.89,380.89,0,0,1,38.41,12.81c12.47,4.79,24.62,9.8,36.54,14.23,1.49.58,3,1.11,4.46,1.65s3,1.08,4.45,1.58l4.28,1.49,4.57,1.48c1.51.47,3,1,4.53,1.46l4.32,1.28,4.31,1.28L1194,750c11.62,3.14,23,5.62,34,7.57l8.1,1.36c2.67.41,5.31.75,7.91,1.14l1.94.29c.64.09,1.29.15,1.93.23l3.8.46,3.74.45c1.24.14,2.47.24,3.68.37,9.72,1.06,18.69,1.51,26.68,1.92l5.8.19c1.87.05,3.68.14,5.41.14l5,.06c1.59,0,3.12.07,4.56,0l4.11,0h3.63L1320,764c3.12-.07,4.8-.07,4.8-.07s-1.59.49-4.6,1.35c-1.51.42-3.37,1-5.57,1.54l-3.56.86-4,1c-1.42.35-2.94.65-4.53,1l-5,1c-.87.16-1.76.36-2.67.49l-2.78.44-5.87.9c-8.12,1-17.36,2.06-27.48,2.39-1.27,0-2.55.13-3.84.15l-3.92,0-4,0c-.67,0-1.35,0-2,0l-2,0c-2.73-.06-5.52-.12-8.35-.23l-8.6-.5a301.9,301.9,0,0,1-36.42-5l-4.73-.94-4.8-1.13-4.84-1.15c-1.57-.4-3.08-.81-4.63-1.23l-4.63-1.27-.29-.08-.14,0-.31-.09-.59-.17-1.19-.36-2.39-.72c-1.6-.47-3.17-1-4.76-1.5s-3.17-1-4.74-1.57c-12.64-4.25-25-9.15-37.28-13.84q-9.18-3.54-18.24-6.82l-4.54-1.6-4.51-1.53-1.13-.38-1.1-.36-2.21-.7-2.2-.71-2.34-.7-2.34-.7-1-.32-1.12-.3-4.49-1.19c-1.49-.4-3-.83-4.47-1.19l-4.49-1-4.46-1a10.59,10.59,0,0,0-1.12-.23l-1.12-.22-2.23-.42c-3-.54-5.92-1.2-8.88-1.59l-4.41-.68c-1.47-.23-2.92-.49-4.39-.63l-8.68-1-4.29-.35-4.24-.37c-.71-.06-1.41-.15-2.11-.17l-2.1-.1-4.16-.22-2.06-.11c-.68,0-1.37-.09-2-.08l-4.05-.08-4-.07c-.67,0-1.33,0-2,0l-2,0-7.7.11c-2.52.09-5,.24-7.41.34-1.22,0-2.42.09-3.61.17l-3.51.28-6.82.54-6.45.73-3.11.34c-1,.11-2,.29-3,.42-3.92.61-7.65,1-11,1.71l-4.91.87c-.78.14-1.55.26-2.3.41l-2.15.46-4,.84-3.55.73-5.59,1.36C913.42,730.29,911.78,730.64,911.78,730.64Z" transform="translate(-262.33 -617.76)"/><path class="cls-3" d="M911.78,853.24s1.46-.84,4.2-2.34c1.38-.75,3.07-1.68,5.07-2.73l3.32-1.59,3.79-1.77,2.07-1c.71-.32,1.45-.6,2.2-.91l4.74-1.92,2.53-1,.65-.26.66-.23,1.35-.48,5.64-1.95,1.48-.51c.5-.16,1-.35,1.5-.49l3.11-.91,6.51-1.89c2.24-.58,4.56-1.11,6.93-1.69l3.6-.86,3.71-.73c2.51-.48,5.07-1,7.69-1.44s5.31-.77,8-1.16l2.06-.3c.69-.09,1.39-.14,2.08-.22l4.23-.41,4.29-.42c.72-.08,1.45-.1,2.18-.14l2.19-.12,4.44-.24,2.24-.11c.75-.05,1.5,0,2.26,0l4.56,0,4.62,0c3.1.09,6.23.21,9.39.34,1.59,0,3.17.18,4.76.31l4.81.39c3.22.22,6.45.69,9.71,1.1l2.44.32,1.23.16c.41,0,.82.11,1.23.19l4.91.84,4.94.88c1.65.33,3.28.72,4.94,1.08l5,1.12,1.24.28,1.31.34,2.36.62a377.6,377.6,0,0,1,38.5,12.82c12.47,4.79,24.61,9.8,36.51,14.24,1.48.57,3,1.11,4.45,1.65s2.95,1.08,4.43,1.58l4.25,1.5,4.57,1.48c1.52.48,3,1,4.52,1.47l4.31,1.28,4.28,1.29,4.37,1.18c11.58,3.16,23,5.68,33.88,7.68,2.73.46,5.43.91,8.08,1.39L1244,882l1.94.29,1.92.24,3.8.48,3.74.47c1.23.15,2.46.26,3.67.39,9.69,1.11,18.65,1.62,26.64,2.09l5.8.23c1.87.07,3.67.17,5.41.19l5,.09c1.59,0,3.12.09,4.56.07h4.11l3.63,0,5.74-.08c3.13,0,4.81,0,4.81,0s-1.59.51-4.6,1.4c-1.5.44-3.36,1-5.56,1.6l-3.55.9-4,1c-1.42.36-2.93.68-4.52,1l-5,1c-.87.17-1.76.37-2.67.51l-2.78.46-5.88.94c-8.12,1.1-17.37,2.18-27.51,2.56-1.27.06-2.55.14-3.84.17l-3.93.06-4,.06-2,0-2,0c-2.74,0-5.53-.1-8.37-.19s-5.7-.31-8.62-.48a296.9,296.9,0,0,1-36.52-4.85l-4.74-.94-4.82-1.11-4.86-1.15c-.8-.19-1.54-.4-2.32-.6l-2.31-.62-4.63-1.26-.29-.08-.15,0-.32-.09-.59-.18-1.2-.36-2.39-.71c-1.6-.47-3.18-1-4.77-1.5s-3.18-1-4.76-1.56c-6.33-2.13-12.6-4.4-18.81-6.76s-12.38-4.74-18.5-7.07-12.18-4.64-18.21-6.82l-4.52-1.59-4.5-1.54-1.13-.38-1.1-.35-2.19-.71-2.19-.7-2.34-.71-2.34-.7-1-.32-1.12-.3-4.47-1.2c-1.48-.39-3-.82-4.45-1.2l-4.47-1-4.45-1c-.36-.09-.74-.16-1.11-.23l-1.11-.21-2.23-.43c-3-.54-5.9-1.21-8.85-1.61l-4.4-.69c-1.45-.24-2.91-.49-4.36-.64-2.91-.34-5.8-.71-8.66-1.07l-4.28-.36-4.23-.39c-.7-.06-1.4-.15-2.1-.17l-2.1-.11-4.14-.24-2.06-.12c-.68,0-1.37-.09-2-.09l-4-.09-4-.1c-.66,0-1.32,0-2,0l-2,0-7.68.06c-2.51.08-5,.22-7.4.3-1.21.05-2.42.08-3.6.15l-3.51.26-6.81.5-6.46.69-3.1.32c-1,.1-2,.27-3,.4-3.93.57-7.66,1-11.05,1.61l-4.92.84c-.78.14-1.56.25-2.3.39l-2.16.44-4,.81-3.56.69-3.06.72-2.55.59C913.42,852.9,911.78,853.24,911.78,853.24Z" transform="translate(-262.33 -617.76)"/><text class="cls-4" transform="translate(0 457.94)">W<tspan class="cls-5" x="132" y="0">A</tspan><tspan class="cls-6" x="223.3" y="0">TER</tspan><tspan class="cls-7" x="501.4" y="0"> </tspan><tspan class="cls-8" x="532.79" y="0">W</tspan><tspan class="cls-9" x="667.79" y="0">ONDER</tspan><tspan class="cls-10" x="1172.99" y="0">L</tspan><tspan class="cls-9" x="1256.19" y="0">AND</tspan></text></g></svg>