<?xml version="1.0" encoding="UTF-8"?><svg xmlns="http://www.w3.org/2000/svg" xmlns:xlink="http://www.w3.org/1999/xlink" contentScriptType="text/ecmascript" width="1440" zoomAndPan="magnify" contentStyleType="text/css" viewBox="0 0 1440 809.999993" height="809.999993" preserveAspectRatio="xMidYMid meet" version="1.0"><defs><clipPath id="clip-0"><path d="M 815 562 L 1082 562 L 1082 810 L 815 810 Z M 815 562 " clip-rule="nonzero"/></clipPath><clipPath id="clip-1"><path d="M 877.632812 1098.433594 L 567.03125 643.929688 L 1418.457031 62.074219 L 1729.058594 516.582031 Z M 877.632812 1098.433594 " clip-rule="nonzero"/></clipPath><clipPath id="clip-2"><path d="M 877.632812 1098.433594 L 567.03125 643.929688 L 1418.457031 62.074219 L 1729.058594 516.582031 Z M 877.632812 1098.433594 " clip-rule="nonzero"/></clipPath><clipPath id="clip-3"><path d="M 1332 236 L 1440 236 L 1440 500 L 1332 500 Z M 1332 236 " clip-rule="nonzero"/></clipPath><clipPath id="clip-4"><path d="M 877.632812 1098.433594 L 567.03125 643.929688 L 1418.457031 62.074219 L 1729.058594 516.582031 Z M 877.632812 1098.433594 " clip-rule="nonzero"/></clipPath><clipPath id="clip-5"><path d="M 877.632812 1098.433594 L 567.03125 643.929688 L 1418.457031 62.074219 L 1729.058594 516.582031 Z M 877.632812 1098.433594 " clip-rule="nonzero"/></clipPath><clipPath id="clip-6"><path d="M 1433.296875 552.296875 L 1278.695312 326.066406 L 1497.824219 176.316406 L 1652.425781 402.546875 Z M 1433.296875 552.296875 " clip-rule="nonzero"/></clipPath><clipPath id="clip-7"><path d="M 1433.296875 552.296875 L 1278.695312 326.066406 L 1496.882812 176.957031 L 1651.488281 403.1875 Z M 1433.296875 552.296875 " clip-rule="nonzero"/></clipPath><clipPath id="clip-8"><path d="M 1158 508 L 1431 508 L 1431 776 L 1158 776 Z M 1158 508 " clip-rule="nonzero"/></clipPath><clipPath id="clip-9"><path d="M 877.632812 1098.433594 L 567.03125 643.929688 L 1418.457031 62.074219 L 1729.058594 516.582031 Z M 877.632812 1098.433594 " clip-rule="nonzero"/></clipPath><clipPath id="clip-10"><path d="M 877.632812 1098.433594 L 567.03125 643.929688 L 1418.457031 62.074219 L 1729.058594 516.582031 Z M 877.632812 1098.433594 " clip-rule="nonzero"/></clipPath><clipPath id="clip-11"><path d="M 745 722 L 1018 722 L 1018 810 L 745 810 Z M 745 722 " clip-rule="nonzero"/></clipPath><clipPath id="clip-12"><path d="M 877.632812 1098.433594 L 567.03125 643.929688 L 1418.457031 62.074219 L 1729.058594 516.582031 Z M 877.632812 1098.433594 " clip-rule="nonzero"/></clipPath><clipPath id="clip-13"><path d="M 877.632812 1098.433594 L 567.03125 643.929688 L 1418.457031 62.074219 L 1729.058594 516.582031 Z M 877.632812 1098.433594 " clip-rule="nonzero"/></clipPath><clipPath id="clip-14"><path d="M 756 741 L 999 741 L 999 810 L 756 810 Z M 756 741 " clip-rule="nonzero"/></clipPath><clipPath id="clip-15"><path d="M 877.632812 1098.433594 L 567.03125 643.929688 L 1418.457031 62.074219 L 1729.058594 516.582031 Z M 877.632812 1098.433594 " clip-rule="nonzero"/></clipPath><clipPath id="clip-16"><path d="M 877.632812 1098.433594 L 567.03125 643.929688 L 1418.457031 62.074219 L 1729.058594 516.582031 Z M 877.632812 1098.433594 " clip-rule="nonzero"/></clipPath><clipPath id="clip-17"><path d="M 1210 147 L 1440 147 L 1440 422 L 1210 422 Z M 1210 147 " clip-rule="nonzero"/></clipPath><clipPath id="clip-18"><path d="M 877.632812 1098.433594 L 567.03125 643.929688 L 1418.457031 62.074219 L 1729.058594 516.582031 Z M 877.632812 1098.433594 " clip-rule="nonzero"/></clipPath><clipPath id="clip-19"><path d="M 877.632812 1098.433594 L 567.03125 643.929688 L 1418.457031 62.074219 L 1729.058594 516.582031 Z M 877.632812 1098.433594 " clip-rule="nonzero"/></clipPath><clipPath id="clip-20"><path d="M 1310.695312 475.324219 L 1152.472656 243.792969 L 1371.601562 94.042969 L 1529.828125 325.574219 Z M 1310.695312 475.324219 " clip-rule="nonzero"/></clipPath><clipPath id="clip-21"><path d="M 1310.695312 475.324219 L 1152.789062 244.253906 L 1371.917969 94.503906 L 1529.828125 325.574219 Z M 1310.695312 475.324219 " clip-rule="nonzero"/></clipPath><clipPath id="clip-22"><path d="M 1221 166 L 1440 166 L 1440 404 L 1221 404 Z M 1221 166 " clip-rule="nonzero"/></clipPath><clipPath id="clip-23"><path d="M 877.632812 1098.433594 L 567.03125 643.929688 L 1418.457031 62.074219 L 1729.058594 516.582031 Z M 877.632812 1098.433594 " clip-rule="nonzero"/></clipPath><clipPath id="clip-24"><path d="M 877.632812 1098.433594 L 567.03125 643.929688 L 1418.457031 62.074219 L 1729.058594 516.582031 Z M 877.632812 1098.433594 " clip-rule="nonzero"/></clipPath></defs><rect x="-144" width="1728" fill="rgb(100%, 100%, 100%)" y="-80.999999" height="971.999992" fill-opacity="1"/><rect x="-144" width="1728" fill="rgb(100%, 100%, 100%)" y="-80.999999" height="971.999992" fill-opacity="1"/><rect x="-144" width="1728" fill="rgb(100%, 100%, 100%)" y="-80.999999" height="971.999992" fill-opacity="1"/><g clip-path="url(#clip-0)"><g clip-path="url(#clip-1)"><g clip-path="url(#clip-2)"><path fill="rgb(4.309082%, 49.798584%, 70.979309%)" d="M 917.96875 824.320312 C 953.636719 853.796875 1024.816406 815.929688 1049.878906 784.441406 C 1094.4375 736.03125 1087.441406 668.992188 1058.304688 620.679688 C 1008.398438 536.285156 844.421875 540.609375 818.144531 655.527344 C 803.820312 708.410156 843.144531 800.039062 899.988281 815.054688 " fill-opacity="1" fill-rule="nonzero"/></g></g></g><g clip-path="url(#clip-3)"><g clip-path="url(#clip-4)"><g clip-path="url(#clip-5)"><g clip-path="url(#clip-6)"><g clip-path="url(#clip-7)"><path fill="rgb(0%, 80.778503%, 78.819275%)" d="M 1438.605469 237.476562 C 1393.605469 226.695312 1346.335938 292.003906 1337.675781 331.316406 C 1318.945312 394.394531 1354.714844 451.519531 1402.125 482.097656 C 1484.0625 535.953125 1629.414062 459.949219 1602.476562 345.179688 C 1592.089844 291.378906 1516.480469 226.382812 1458.820312 237.894531 " fill-opacity="1" fill-rule="nonzero"/></g></g></g></g></g><g clip-path="url(#clip-8)"><g clip-path="url(#clip-9)"><g clip-path="url(#clip-10)"><path fill="rgb(1.568604%, 71.759033%, 74.899292%)" d="M 1168.933594 611.316406 C 1139.457031 646.988281 1177.328125 718.175781 1208.820312 743.246094 C 1257.226562 787.804688 1324.265625 780.824219 1372.574219 751.691406 C 1456.964844 701.789062 1452.613281 537.808594 1337.695312 511.511719 C 1284.820312 497.179688 1193.203125 536.492188 1178.191406 593.34375 " fill-opacity="1" fill-rule="nonzero"/></g></g></g><g clip-path="url(#clip-11)"><g clip-path="url(#clip-12)"><g clip-path="url(#clip-13)"><path fill="rgb(1.568604%, 71.759033%, 74.899292%)" d="M 876.433594 728.644531 C 925.546875 731.265625 970.1875 767.363281 995.046875 807.976562 C 1017.066406 843.964844 1017.820312 889.746094 996.132812 925.984375 C 976.761719 958.367188 941.957031 979.617188 905.796875 988.003906 C 864.601562 997.550781 825.410156 986.777344 794.441406 958.355469 C 775.203125 940.691406 760.976562 917.800781 753.925781 892.667969 C 746.261719 865.316406 751.566406 838.386719 760.496094 812.125 C 769.820312 784.707031 786.628906 759.527344 810.859375 743.265625 C 823.019531 735.097656 842.054688 726.542969 856.9375 727.453125 C 863.4375 727.851562 869.9375 728.25 876.433594 728.644531 C 879.363281 728.828125 875.523438 723.828125 873.375 723.695312 C 867.140625 723.316406 860.914062 722.933594 854.679688 722.554688 C 841.996094 721.773438 827.164062 727.824219 816.03125 733.199219 C 792.566406 744.53125 774.578125 766.164062 763.386719 789.277344 C 742.015625 833.417969 737.890625 880.375 762.46875 924.003906 C 781.402344 957.605469 814.476562 985.792969 852.617188 993.871094 C 887.460938 1001.246094 924.878906 992.515625 955.15625 974.628906 C 1004 945.777344 1028.679688 890.324219 1012.109375 835.257812 C 1003.304688 806.015625 981.949219 780.605469 959.097656 761.125 C 935.15625 740.714844 905.167969 725.394531 873.375 723.695312 C 870.433594 723.539062 874.28125 728.535156 876.433594 728.644531 " fill-opacity="1" fill-rule="nonzero"/></g></g></g><g clip-path="url(#clip-14)"><g clip-path="url(#clip-15)"><g clip-path="url(#clip-16)"><path fill="rgb(1.568604%, 71.759033%, 74.899292%)" d="M 917.203125 970.453125 C 869.539062 982.710938 812.039062 958.289062 781.976562 920.65625 C 755.984375 888.105469 756.582031 842.925781 777.027344 808.082031 C 795.585938 776.46875 829.234375 753.097656 865.441406 747.324219 C 916.601562 739.171875 970.769531 776.101562 987.269531 823.863281 C 997.535156 853.601562 993.679688 892.253906 980.941406 920.660156 C 973.625 936.972656 961.289062 950.40625 946.28125 959.933594 C 937.042969 965.789062 927.617188 967.835938 917.203125 970.453125 C 914.878906 971.039062 919.046875 975.757812 921.300781 975.191406 C 939.523438 970.617188 954.261719 964.25 968.007812 950.726562 C 984.324219 934.664062 992.699219 912.054688 996.113281 889.839844 C 999.546875 867.511719 998.613281 843.164062 991.230469 821.792969 C 983.367188 799.023438 966.691406 780.386719 947.589844 766.308594 C 915.769531 742.859375 876.859375 734.894531 839.496094 748.242188 C 806.738281 759.953125 779.195312 786.039062 765.0625 817.664062 C 747.757812 856.402344 757.75 901.449219 786.839844 931.582031 C 819.507812 965.410156 874.714844 987.175781 921.300781 975.191406 C 923.636719 974.589844 919.460938 969.875 917.203125 970.453125 " fill-opacity="1" fill-rule="nonzero"/></g></g></g><g clip-path="url(#clip-17)"><g clip-path="url(#clip-18)"><g clip-path="url(#clip-19)"><g clip-path="url(#clip-20)"><g clip-path="url(#clip-21)"><path fill="rgb(1.568604%, 71.759033%, 74.899292%)" d="M 1341.265625 153.398438 C 1390.382812 156.023438 1435.027344 192.117188 1459.882812 232.738281 C 1481.910156 268.722656 1482.660156 314.496094 1460.976562 350.738281 C 1441.605469 383.117188 1406.796875 404.382812 1370.628906 412.761719 C 1329.441406 422.304688 1290.246094 411.535156 1259.285156 383.113281 C 1240.046875 365.453125 1225.808594 342.558594 1218.769531 317.421875 C 1211.101562 290.066406 1216.398438 263.140625 1225.339844 236.878906 C 1234.664062 209.460938 1251.464844 184.285156 1275.699219 168.015625 C 1287.859375 159.847656 1306.894531 151.296875 1321.777344 152.207031 C 1328.277344 152.605469 1334.773438 152.996094 1341.265625 153.398438 C 1344.199219 153.585938 1340.355469 148.585938 1338.214844 148.457031 C 1331.984375 148.066406 1325.753906 147.683594 1319.523438 147.304688 C 1306.835938 146.523438 1292.003906 152.578125 1280.871094 157.949219 C 1257.40625 169.285156 1239.417969 190.917969 1228.226562 214.03125 C 1206.847656 258.175781 1202.730469 305.125 1227.308594 348.753906 C 1246.242188 382.355469 1279.320312 410.542969 1317.457031 418.621094 C 1352.304688 426.003906 1389.71875 417.269531 1420 399.382812 C 1468.839844 370.542969 1493.519531 315.078125 1476.949219 260.011719 C 1468.152344 230.777344 1446.792969 205.359375 1423.941406 185.878906 C 1399.996094 165.46875 1370.015625 150.152344 1338.214844 148.457031 C 1335.277344 148.296875 1339.125 153.285156 1341.265625 153.398438 " fill-opacity="1" fill-rule="nonzero"/></g></g></g></g></g><g clip-path="url(#clip-22)"><g clip-path="url(#clip-23)"><g clip-path="url(#clip-24)"><path fill="rgb(1.568604%, 71.759033%, 74.899292%)" d="M 1382.046875 395.207031 C 1334.378906 407.464844 1276.871094 383.046875 1246.820312 345.417969 C 1220.820312 312.867188 1221.417969 267.683594 1241.867188 232.835938 C 1260.417969 201.226562 1294.078125 177.851562 1330.277344 172.082031 C 1381.445312 163.925781 1435.613281 200.855469 1452.113281 248.625 C 1462.378906 278.355469 1458.523438 317.007812 1445.78125 345.414062 C 1438.460938 361.726562 1426.128906 375.160156 1411.121094 384.6875 C 1401.878906 390.546875 1392.453125 392.59375 1382.046875 395.207031 C 1379.714844 395.796875 1383.882812 400.515625 1386.136719 399.949219 C 1404.359375 395.375 1419.097656 389.007812 1432.84375 375.484375 C 1449.164062 359.417969 1457.535156 336.8125 1460.953125 314.59375 C 1464.390625 292.265625 1463.453125 267.925781 1456.074219 246.546875 C 1448.210938 223.78125 1431.535156 205.140625 1412.425781 191.0625 C 1380.605469 167.617188 1341.695312 159.660156 1304.335938 173.007812 C 1271.582031 184.707031 1244.03125 210.796875 1229.902344 242.429688 C 1212.601562 281.164062 1222.585938 326.207031 1251.6875 356.34375 C 1284.347656 390.164062 1339.558594 411.925781 1386.136719 399.949219 C 1388.472656 399.351562 1384.300781 394.628906 1382.046875 395.207031 " fill-opacity="1" fill-rule="nonzero"/></g></g></g></svg>