<svg xmlns="http://www.w3.org/2000/svg" width="3276" height="3275" viewBox="0 0 3276 3275">
  <defs>
    <style>
      .cls-1 {
        fill: #32b2ff;
        fill-rule: evenodd;
      }
    </style>
  </defs>
  <path id="Color_Fill_1" data-name="Color Fill 1" class="cls-1" d="M2553,1649c0.51,11.22,1.73,24.46,4,35,2.58,12-.4,25.78,2,37,2.7,12.62-.62,29.72-1,41-1.45,42.77-5.5,80.27-10,118,19.62,12.11,36.68,28.22,55,42,4.69,3.52,8.34,9.48,13,13,13.8,10.43,24.92,22.91,37,35,32.53,32.54,62.82,68.2,88,108,8.52,13.47,19.81,31.64,25,47,8.88,26.27-6.74,52.77-21,63-5.01,3.6-12.96,7.12-19,9-27.57,8.59-52.35-9.2-62-23-3.21-4.59-4.01-10.08-7-15-29.36-48.3-58.41-83.41-97-122-8.94-8.94-17.74-17.3-28-25-3.58-2.69-7.77-9.02-11-9-5.7,8.67-6.23,21.88-10,32-8.35,22.39-15.49,45.11-25,67-25.23,58.05-54.36,114.58-89,164-105.03,149.84-241.1,264.87-419,342-36.11,15.66-75.19,26.41-114,39-13.89,4.5-26.72,4.99-41,9-23.92,6.71-51.53,9.03-77,15-14.63,3.43-30.05,1.86-44,5q-22.995,1.005-46,2c-14.53,3.1-64.54,3.2-79,0h-19c-17.52-3.93-37.06-.84-55-5-13.26-3.07-28.04-2.48-42-6-35.71-9-72.32-12.78-106-24-101.36-33.76-191.89-72.55-271-128-112.612-78.93-203.444-176.92-277-295-25.128-40.34-45.724-85.49-65-131-5.6-13.21-10.146-26.95-15-40-2.118-5.69-1.923-14.32-7-17-4.05,6.25-10.8,10.8-16,16q-17.5,19.005-35,38c-29.113,38.88-54.01,78.13-74,127-7.641,18.68-9.989,40.26-15,61-6.458,26.73-4.073,73.63,2,98,3.252,13.05,3.04,23.92,7,36,14.25,43.46,33.123,82.02,57,116,10.711,15.24,23.742,29.09,35,44q5.5,4.995,11,10c11.083,14.65,25.339,27.93,40,39,7.078,5.34,12.87,13.65,20,19,22.1,16.58,43.6,32.43,67,48,56.079,37.3,117.565,69.63,183,98,43.32,18.78,89.88,32.73,136,48,55.69,18.43,115.52,25.82,175,41l102,15c12.54,2.86,25.45,1.41,37,4,15.67,3.51,32.24.73,47,4q39,1.995,78,4h80c22.16,0,49.57,2.28,69-2,6.19-1.36,15.05.09,20-1,10.51-2.32,21.73.05,31-2h13c13.61-3.04,30.66-2.01,44-5q9.495-.495,19-1c23.83-5.5,49.79-4.08,74-10q43.995-7.995,88-16c55.64-15.71,112.84-25.98,164-45,10.21-3.8,19.94-4.86,30-9,49.01-20.16,98.17-38.62,143-62,11.81-6.16,23.74-10.16,35-17,19.47-11.83,39.61-22.77,59-35,10.43-6.58,20.5-16.95,32-22,48.77-21.43,97.4,27.23,76,76-11.38,25.92-61.21,48.67-86,64-83.8,51.84-178.57,86.84-281,121-50.39,16.8-106.02,26.92-160,42-23.3,6.51-48.03,7.29-71,13l-113,15q-52.995,4.005-106,8c-7.45,1.65-17.78-.38-24,1h-35c-14.52,3.12-64.53,3.18-79,0-11.27-2.48-25.97,1.21-36-1q-21-.495-42-1-57.495-4.995-115-10c-19.13-4.41-40.18-3.16-60-8-45.88-11.19-93.6-13.35-138-26-44.31-12.63-89.23-21.7-132-36-105.036-35.13-203.206-76.87-289-131-34.785-21.95-66.829-43.98-99-68-15.73-11.75-28.5-28.28-44-40a178.205,178.205,0,0,1-34-34q-5.5-4.995-11-10c-31.888-42.15-68.408-82.63-91-134-10.822-24.61-20.3-50.35-29-77-4.367-13.38-4.422-25.65-8-40-5.382-21.58-11.947-74.1-6-101q0.5-10.995,1-22c5.256-22.75,6.06-45.87,13-67,15.1-45.98,32.4-88.5,56-126,15.492-24.61,33.756-47.07,51-70,6.794-9.03,17.234-16.06,24-25,6.893-9.11,15.038-16.04,23-24q4.5-4.995,9-10c12.468-9.43,22.656-21.74,35-31,5.238-3.93,12.21-5.56,13-14-5.994-9.39-4.915-39.32-8-53-6.742-29.89-7-65.21-7-100v-44l4-40h-2c-10.038,8.88-35.767,16.19-49,23-36.7,18.88-74.3,37.43-109,59-155.157,96.42-290.982,208.22-367,384-13.283,30.71-21.724,64.83-31,101q-3,22.995-6,46v15c-3.625,17.23-2.591,46.92,1,63v11q4,24.99,8,50c9.525,33.75,17.858,66.04,31,96,63.285,144.26,175.909,246.21,298,332,34.26,24.07,71.937,44.02,108,66,16.087,9.8,33.1,16.22,50,25,29.191,15.17,60.233,30.58,91,44,21.893,9.55,51.682,16.66,70,30,16.419,11.95,29.374,47.52,15,72-10.051,17.12-24.454,24.96-47,30-10.028,2.24-20.92-3.43-27-6-18.133-7.67-35.907-14.51-53-22-77.261-33.84-149.361-70.25-217-113-40.752-25.76-78.9-52.03-117-80-17.955-13.18-33.371-30.68-51-44-20.175-15.25-46.872-38.98-62-59q-8.5-7.995-17-16c-13.257-17.52-29.973-32.44-43-50-26.637-35.9-51.2-72.92-75-112-17.943-29.46-28.2-62.33-42-96-13.394-32.68-19.777-70-29-108-4.315-17.78-1.008-36.16-5-55-2.385-11.25-3.372-31.27-1-42,2.962-13.39-.607-28.32,2-40,4.058-18.18,1.55-35.81,6-53,12.757-49.28,23.407-94.63,42-137,86.391-196.85,250.216-329.92,426-438,15.325-9.42,31.484-15.57,47-25,36.116-21.94,77.389-41.6,117-59,16.524-7.26,33.009-14.08,49-21,7.43-3.21,19.086-4.23,24-10,2.452-3.4,2.2-7.64,4-12,4.909-11.9,8.7-24.54,14-37,10.348-24.33,21.245-48.63,32-73a687.647,687.647,0,0,1,40-76c11.646-19.11,19.4-39.08,31-58,26.238-42.79,52.244-85.63,79-128,39.614-62.73,84.61-122.82,127-183,131.12-186.151,272.38-362.963,395-557,49.59-78.467,95.2-160.391,123-260,3.15-11.274,8.21-46.146,5-61-2.45-11.332-6.86-27.721-3-41,6.08-20.916,21.15-35.8,42-42,12.33-3.671,30.51-.387,39,4,12.07,6.241,20.76,17.755,30,27,18.5,18.51,37.1,36.886,53,58,6.07,8.061,14.93,14.905,21,23,22.49,29.979,47.87,57.885,70,88,61.78,84.049,122.6,168.229,181,256,33.33,50.093,67.64,100.868,100,152,32.71,51.693,63,104.939,95,157,26.69,43.423,48.56,89.617,75,133,7.52,12.346,11.47,25.6,19,38,21.15,34.823,40.12,72.7,57,111,13.04,29.59,30.83,59.08,44,89,36.11,82,69.33,165.35,102,252,11.41,30.26,18.98,62.27,29,93,1.92,5.9,5.53,30.85,8,34,2.13,2.71,18.59,6.18,23,8,20,8.24,40.71,16.17,61,25,45.05,19.61,92.23,40.17,133,65,16.8,10.23,34.37,16.81,51,27,164.28,100.71,296.24,208.42,397,373,20.56,33.58,35.43,71.97,51,110,13.95,34.06,18.69,72.31,28,111,2.69,11.19.49,21.25,3,33,5.92,27.74,5.09,88.15-1,115q-1.005,11.505-2,23c-5.71,23.47-7.7,47.57-15,70-21.18,65.1-46.06,121.87-79,174-81.35,128.75-191.26,228.72-320,310-22.87,14.44-46.6,29.72-70,44-19.41,11.85-40.37,19.08-60,31-10.06,6.11-22.04,13.18-33,18-37.34,16.44-74.38,33.7-112,50-32,13.87-65.85,23.81-98,37-12.98,5.33-25.84,7.11-39,12-46.89,17.42-98.39,28.96-148,44-18.13,5.49-35.46,6.75-54,12-49.65,14.07-104.81,19.44-157,32-24.5,5.9-50.2,5.48-74,11-27.55,6.39-56.91,3.93-84,10l-108,9c-11.64,2.56-24.39-.33-35,2q-22.995.495-46,1c-9.41,2.01-23.33-1.27-34,1-12.33,2.62-68.43,3.5-80,0a77.165,77.165,0,0,1-22-11c-7.67-5.7-12.02-14.38-16-24-14.87-35.93,9.81-67.91,39-76q39-1.005,78-2h21c15.2-3.34,35.01.27,50-3h19c9.64-2.13,21.28.37,32-2l130-12c17.09-3.92,36.07-2.71,54-7,45.15-10.79,93.8-12.43,137-24q15-2.505,30-5c42.64-12.02,87.18-17.37,129-31,88.35-28.79,175.09-52.88,256-88,236.69-102.75,470.19-255.61,569-495,12.62-30.58,18.6-64.13,27-99,3.52-14.63.74-28.42,4-44,3.69-17.63,2.81-57.84-1-75-2.99-13.5-.72-25.25-4-38-8.94-34.8-16.39-68.23-29-98-76.21-179.9-207.26-288.03-365-386-42.42-26.35-87.25-51.02-135-72-17.24-7.58-34.71-16.05-53-24C2567.45,1655.15,2561.02,1650.35,2553,1649Zm-354-294c-5.42,3.31-14.38,2.52-20,5-12.53,5.53-23.66,18.24-29,31-7.16,17.09-.95,51.79,3,69l3,39c2.53,11.54.2,25.05,3,38,4.59,21.23,3,47,3,71,0.02,96.71-5.29,185.26-28,260-7.42,24.43-10.75,47.47-20,70-10.89,26.5-20.52,55.17-35,79-54.86,90.3-117.23,161.77-218,206-27.01,11.86-55.69,20.53-85,30-23.63,7.63-44.24,5.76-62,19-33.59,25.04-18.59,80.83,14,95,20.08,8.73,49.77,1.53,68-4,54.81-16.63,104.07-30.24,148-57,9.02-5.49,18.21-8.47,27-14,21.04-13.24,41.24-28.25,61-43,14.48-10.81,36.15-30.64,47-45,6.06-8.02,15.9-13.92,22-22,13.86-18.36,28.75-36.13,42-55,37.29-53.12,64.66-117.67,87-185,13.55-40.82,19.3-84.77,30-129q4.005-30.495,8-61,2.505-31.5,5-63v-23c4-18.61,1-44.46,1-65,0-28.2,1.49-62.19-4-87-3.45-15.61-.8-31.85-4-46-6.28-27.81-1.13-64.17-14-85C2242.1,1366.97,2224.74,1355.17,2199,1355Z"/>
</svg>
