<svg xmlns="http://www.w3.org/2000/svg" width="3276" height="3275" viewBox="0 0 3276 3275">
  <defs>
    <style>
      .cls-1 {
        fill: #0b7fb5;
        fill-rule: evenodd;
      }
    </style>
  </defs>
  <path id="Color_Fill_1" data-name="Color Fill 1" class="cls-1" d="M2526,1516q7.5,2.505,15,5v1h2v1c2,0.33,4,.67,6,1v1h2v1h3v1h2v1c1.67,0.33,3.33.67,5,1v1h3v1h2v1h3v1h2v1h3v1c1.67,0.33,3.33.67,5,1v1h2v1h3v1c1.33,0.33,2.67.67,4,1v1h3v1h2v1h3v1c1.33,0.33,2.67.67,4,1v1h3v1c1.33,0.33,2.67.67,4,1v1h3v1c1.33,0.33,2.67.67,4,1v1h3v1c1.33,0.33,2.67.67,4,1v1h3v1h2v1c1.33,0.33,2.67.67,4,1v1h3v1h2v1h2v1h2v1h3v1h2v1h2v1c1.33,0.33,2.67.67,4,1v1h3v1h2v1h2v1h2v1c2,0.67,4,1.33,6,2v1h3v1c2,0.67,4,1.33,6,2v1h2v1h2v1h2v1h2v1h2v1h2v1h2v1h3v1h2v1c1.33,0.33,2.67.67,4,1v1h2v1h2v1h2v1h2v1h2v1h2v1h2v1h2v1h2v1h2v1h2c0.33,0.67.67,1.33,1,2h2v1h2v1h2v1h2v1h2v1h2v1h2v1h2v1h2v1c1.33,0.33,2.67.67,4,1,0.33,0.67.67,1.33,1,2h2v1h2v1h2v1h2v1c1.33,0.33,2.67.67,4,1,0.33,0.67.67,1.33,1,2h2v1h2v1h2v1h2c0.33,0.67.67,1.33,1,2h2v1h2v1h2v1h2c0.33,0.67.67,1.33,1,2,2,0.67,4,1.33,6,2,0.33,0.67.67,1.33,1,2,2,0.67,4,1.33,6,2,0.33,0.67.67,1.33,1,2,2,0.67,4,1.33,6,2,0.33,0.67.67,1.33,1,2h2v1h2c0.33,0.67.67,1.33,1,2,2,0.67,4,1.33,6,2,0.33,0.67.67,1.33,1,2,1.33,0.33,2.67.67,4,1,0.33,0.67.67,1.33,1,2,1.33,0.33,2.67.67,4,1,0.33,0.67.67,1.33,1,2,1.33,0.33,2.67.67,4,1v1c1,0.33,2,.67,3,1,0.33,0.67.67,1.33,1,2h2v1h2c0.33,0.67.67,1.33,1,2,1.33,0.33,2.67.67,4,1,0.33,0.67.67,1.33,1,2h2c0.33,0.67.67,1.33,1,2h2c0.33,0.67.67,1.33,1,2,1.33,0.33,2.67.67,4,1,0.33,0.67.67,1.33,1,2h2c0.33,0.67.67,1.33,1,2h2c0.33,0.67.67,1.33,1,2,1.33,0.33,2.67.67,4,1,0.33,0.67.67,1.33,1,2h2c0.33,0.67.67,1.33,1,2h2c0.33,0.67.67,1.33,1,2h2c0.33,0.67.67,1.33,1,2h2v1c1,0.33,2,.67,3,1,0.33,0.67.67,1.33,1,2h2c0.33,0.67.67,1.33,1,2h2v1c1,0.33,2,.67,3,1,0.33,0.67.67,1.33,1,2h2c0.67,1,1.33,2,2,3h2c0.33,0.67.67,1.33,1,2h2v1c1,0.33,2,.67,3,1,0.33,0.67.67,1.33,1,2h2c0.67,1,1.33,2,2,3h2c0.33,0.67.67,1.33,1,2h2c0.67,1,1.33,2,2,3h2c0.33,0.67.67,1.33,1,2h2c0.67,1,1.33,2,2,3h2c0.33,0.67.67,1.33,1,2h2c0.33,0.67.67,1.33,1,2,1,0.33,2,.67,3,1,0.67,1,1.33,2,2,3h2c0.67,1,1.33,2,2,3h2c0.67,1,1.33,2,2,3h2c0.67,1,1.33,2,2,3h2c0.67,1,1.33,2,2,3h2c0.67,1,1.33,2,2,3h2c0.33,0.67.67,1.33,1,2h1c0.33,0.67.67,1.33,1,2h2c1,1.33,2,2.67,3,4h2c0.67,1,1.33,2,2,3h2c1,1.33,2,2.67,3,4h2c1.33,1.67,2.67,3.33,4,5h2c0.33,0.67.67,1.33,1,2h1c0.33,0.67.67,1.33,1,2h2c1.33,1.67,2.67,3.33,4,5h2c1.33,1.67,2.67,3.33,4,5h2c1.67,2,3.33,4,5,6h2q3,3.495,6,7h2q3.495,4.005,7,8h2q4.005,4.5,8,9h2c0.33,0.67.67,1.33,1,2,2,1.67,4,3.33,6,5q4.005,4.5,8,9h2q4.5,4.995,9,10c7.29,7.3,14.84,13.48,21,22q7.005,6.495,14,13v2q4.995,4.5,10,9v2q3.495,3,7,6v2c2,1.67,4,3.33,6,5v2c1.67,1.33,3.33,2.67,5,4v2c1.67,1.33,3.33,2.67,5,4v2c1.67,1.33,3.33,2.67,5,4v2c1.33,1,2.67,2,4,3v2c0.67,0.33,1.33.67,2,1,0.33,1,.67,2,1,3,1.33,1,2.67,2,4,3v2c1,0.67,2,1.33,3,2v2c1,0.67,2,1.33,3,2v2c1,0.67,2,1.33,3,2v2c1,0.67,2,1.33,3,2,0.33,1,.67,2,1,3,0.67,0.33,1.33.67,2,1v2c0.67,0.33,1.33.67,2,1v2c1,0.67,2,1.33,3,2v2c0.67,0.33,1.33.67,2,1v2c1,0.67,2,1.33,3,2v2c0.67,0.33,1.33.67,2,1,0.33,1,.67,2,1,3h1v2c0.67,0.33,1.33.67,2,1v2c0.67,0.33,1.33.67,2,1v2c0.67,0.33,1.33.67,2,1v2c0.67,0.33,1.33.67,2,1v2c0.67,0.33,1.33.67,2,1v2c0.67,0.33,1.33.67,2,1v2c0.67,0.33,1.33.67,2,1,0.33,1.33.67,2.67,1,4,0.67,0.33,1.33.67,2,1v2c0.67,0.33,1.33.67,2,1,0.33,1.33.67,2.67,1,4,0.67,0.33,1.33.67,2,1,0.33,1.33.67,2.67,1,4,0.67,0.33,1.33.67,2,1,0.33,1.33.67,2.67,1,4,0.67,0.33,1.33.67,2,1,0.33,1.33.67,2.67,1,4,0.67,0.33,1.33.67,2,1,0.33,1.33.67,2.67,1,4h1v2h1v2c0.67,0.33,1.33.67,2,1v2h1v2h1v2h1v2c13.59,21.63,24.23,47.68,35,72v3h1v2h1c0.33,2,.67,4,1,6h1v2h1q7.995,24.495,16,49c0.33,2.67.67,5.33,1,8h1v4h1v3h1v4h1q1.005,6.495,2,13h1v5c3.1,9.93,4,22.75,7,33v7h1v7h1v9h1v10h1v12h1v18c2.07,7.5,2.11,36.52,0,44v18h-1q-0.495,11.505-1,23h-1v8h-1v8h-1v7h-1q-0.495,6-1,12c-2.34,7.73-3.62,17.6-6,25v5h-1q-1.995,10.005-4,20c-4.49,13.12-8.05,27.59-13,40v3h-1v3h-1v3h-1v3h-1v2h-1c-0.33,2-.67,4-1,6h-1v2h-1c-0.33,2-.67,4-1,6h-1c-0.33,1.67-.67,3.33-1,5h-1v2h-1v3h-1c-0.33,1.33-.67,2.67-1,4h-1v3h-1v2h-1v3h-1v2h-1v2h-1v2h-1v3h-1v2h-1v2h-1c-0.67,2-1.33,4-2,6h-1v3h-1c-0.67,2-1.33,4-2,6h-1v2h-1v2h-1v2h-1v2h-1v2h-1v2h-1v2h-1v2c-0.67.33-1.33,0.67-2,1v2h-1v2h-1v2h-1v2h-1c-0.33,1.33-.67,2.67-1,4-0.67.33-1.33,0.67-2,1v2h-1v2h-1v2h-1v2c-0.67.33-1.33,0.67-2,1-0.67,2-1.33,4-2,6-0.67.33-1.33,0.67-2,1-0.33,1.33-.67,2.67-1,4-0.67.33-1.33,0.67-2,1-0.33,1.33-.67,2.67-1,4-0.67.33-1.33,0.67-2,1-0.33,1.33-.67,2.67-1,4-0.67.33-1.33,0.67-2,1v2c-0.67.33-1.33,0.67-2,1-0.33,1.33-.67,2.67-1,4-0.67.33-1.33,0.67-2,1v2c-0.67.33-1.33,0.67-2,1v2c-0.67.33-1.33,0.67-2,1v2c-0.67.33-1.33,0.67-2,1-0.33,1.33-.67,2.67-1,4h-1c-0.33,1-.67,2-1,3-0.67.33-1.33,0.67-2,1v2c-1,.67-2,1.33-3,2v2c-0.67.33-1.33,0.67-2,1v2h-1c-0.33,1-.67,2-1,3-0.67.33-1.33,0.67-2,1v2c-1,.67-2,1.33-3,2v2c-0.67.33-1.33,0.67-2,1v2c-0.67.33-1.33,0.67-2,1-0.33,1-.67,2-1,3-1,.67-2,1.33-3,2v2c-1,.67-2,1.33-3,2v2c-1,.67-2,1.33-3,2v2c-1,.67-2,1.33-3,2v2c-1,.67-2,1.33-3,2v2c-1.33,1-2.67,2-4,3v2c-1.33,1-2.67,2-4,3v2c-1.33,1-2.67,2-4,3v2c-1.67,1.33-3.33,2.67-5,4v2c-1.67,1.33-3.33,2.67-5,4v2c-1.67,1.33-3.33,2.67-5,4v2q-3.495,3-7,6v2q-4.005,3.495-8,7v2c-0.67.33-1.33,0.67-2,1v1q-4.5,4.005-9,8c-8.54,11.8-19.83,20.83-30,31-15.62,15.62-30.89,31.91-49,45q-3,3.495-6,7h-2c-1.33,1.67-2.67,3.33-4,5h-2c-1.33,1.67-2.67,3.33-4,5h-2c-1.33,1.67-2.67,3.33-4,5h-2c-1,1.33-2,2.67-3,4h-2c-1,1.33-2,2.67-3,4h-2c-1,1.33-2,2.67-3,4h-2c-1,1.33-2,2.67-3,4h-2c-0.33.67-.67,1.33-1,2-1,.33-2,0.67-3,1-1,1.33-2,2.67-3,4h-2c-0.67,1-1.33,2-2,3h-2c-0.67,1-1.33,2-2,3h-2c-0.67,1-1.33,2-2,3h-2c-0.67,1-1.33,2-2,3h-2c-0.67,1-1.33,2-2,3-1,.33-2,0.67-3,1-0.33.67-.67,1.33-1,2h-2c-0.33.67-.67,1.33-1,2h-2c-0.67,1-1.33,2-2,3h-2c-0.33.67-.67,1.33-1,2h-2c-0.67,1-1.33,2-2,3h-2c-0.33.67-.67,1.33-1,2h-2c-0.67,1-1.33,2-2,3h-2c-0.33.67-.67,1.33-1,2h-2v1c-1,.33-2,0.67-3,1-0.33.67-.67,1.33-1,2h-2c-0.67,1-1.33,2-2,3h-2c-0.33.67-.67,1.33-1,2-1,.33-2,0.67-3,1v1h-2c-0.33.67-.67,1.33-1,2h-2c-0.33.67-.67,1.33-1,2h-2c-0.33.67-.67,1.33-1,2h-2c-0.33.67-.67,1.33-1,2h-2c-0.33.67-.67,1.33-1,2h-2c-0.33.67-.67,1.33-1,2h-2c-0.33.67-.67,1.33-1,2-1.33.33-2.67,0.67-4,1-0.33.67-.67,1.33-1,2h-2c-0.33.67-.67,1.33-1,2h-2c-0.33.67-.67,1.33-1,2h-2c-0.33.67-.67,1.33-1,2-1.33.33-2.67,0.67-4,1v1c-1,.33-2,0.67-3,1-0.33.67-.67,1.33-1,2h-2v1h-2c-0.33.67-.67,1.33-1,2-1.33.33-2.67,0.67-4,1v1c-1,.33-2,0.67-3,1-0.33.67-.67,1.33-1,2h-2v1h-2c-0.33.67-.67,1.33-1,2-1.33.33-2.67,0.67-4,1-0.33.67-.67,1.33-1,2-1.33.33-2.67,0.67-4,1-0.33.67-.67,1.33-1,2-1.33.33-2.67,0.67-4,1-0.33.67-.67,1.33-1,2-2,.67-4,1.33-6,2-0.33.67-.67,1.33-1,2h-2v1h-2c-0.33.67-.67,1.33-1,2-2,.67-4,1.33-6,2-0.33.67-.67,1.33-1,2h-2v1h-2v1h-2v1h-2c-0.33.67-.67,1.33-1,2-1.33.33-2.67,0.67-4,1v1h-2v1h-2c-0.33.67-.67,1.33-1,2h-2v1h-2v1h-2v1h-2c-0.33.67-.67,1.33-1,2-2,.67-4,1.33-6,2l-15,9h-2v1h-2v1h-2v1h-2v1h-2v1h-2c-0.33.67-.67,1.33-1,2h-2v1h-2v1h-2v1h-2v1h-2v1h-2v1c-1.33.33-2.67,0.67-4,1v1h-2v1h-2v1h-2v1h-2v1h-2v1c-1.33.33-2.67,0.67-4,1v1h-2v1h-3v1c-2,.67-4,1.33-6,2v1h-2v1h-2v1h-2v1h-2v1h-2v1h-2v1h-2v1h-3v1h-2v1h-2v1c-2,.67-4,1.33-6,2v1l-9,3v1h-2v1h-3v1h-2v1c-2,.67-4,1.33-6,2v1h-3v1c-1.33.33-2.67,0.67-4,1v1h-3v1h-2v1c-1.33.33-2.67,0.67-4,1v1h-3v1c-1.33.33-2.67,0.67-4,1v1h-3v1c-1.33.33-2.67,0.67-4,1v1h-3v1h-2v1h-3v1c-1.33.33-2.67,0.67-4,1v1h-3v1h-2v1h-3v1c-1.33.33-2.67,0.67-4,1v1h-3v1h-2v1h-3v1h-2v1c-1.67.33-3.33,0.67-5,1v1h-3v1h-2v1h-3v1h-2v1c-2,.33-4,0.67-6,1v1h-2v1h-3v1h-2v1c-2,.33-4,0.67-6,1v1h-2v1c-2,.33-4,0.67-6,1v1h-2v1c-2,.33-4,0.67-6,1v1h-2v1c-2,.33-4,0.67-6,1v1h-2v1h-3v1h-3v1h-3v1h-3v1h-2v1h-3v1h-3v1h-3v1h-3v1h-2v1l-21,6c-20.57,8.21-43.92,14.38-65,22h-4v1h-3v1h-3v1h-4c-17.62,6.38-38.18,10.62-56,17l-15,3v1c-2.67.33-5.33,0.67-8,1-9.91,3.39-22.09,5.63-32,9q-6.495,1.005-13,2v1h-4v1h-4v1h-4v1c-3,.33-6,0.67-9,1v1h-4v1h-5v1h-4v1h-5c-12.89,4.18-29.05,5.84-42,10q-7.995,1.005-16,2c-12.87,3.94-28.98,5.05-42,9q-9,1.005-18,2c-17.05,5.2-38.61,4.93-56,10h-7v1h-7v1h-7v1q-10.995,1.005-22,2c-14.41,4.18-33.42,2.83-48,7q-9.495.495-19,1v1h-9v1h-10v1h-10v1h-11v1h-11v1h-12v1h-12s-0.07.83-2,1h-11v1q-9.495.495-19,1-13.005.495-26,1v1c-5.48,1.55-14.14-.37-19,1l-106,3c-22.71,0-52.78,2.7-67-6-0.33-.67-0.67-1.33-1-2-1.33-.33-2.67-0.67-4-1-0.67-1-1.33-2-2-3h-2c-0.67-1-1.33-2-2-3-2-1.67-4-3.33-6-5v-2c-1-.67-2-1.33-3-2v-2c-0.67-.33-1.33-0.67-2-1-0.67-2-1.33-4-2-6h-1v-3h-1v-2h-1v-4h-1v-4h-1v-9a2.625,2.625,0,0,1-1-3h1v-9h1v-4h1v-3h1v-3h1v-3h1v-2h1v-2c0.67-.33,1.33-0.67,2-1,0.33-1.33.67-2.67,1-4,1-.67,2-1.33,3-2v-2c1-.67,2-1.33,3-2,1.33-1.67,2.67-3.33,4-5h2c0.67-1,1.33-2,2-3h2c0.33-.67.67-1.33,1-2h2v-1h2v-1h2v-1h2v-1h2v-1h3v-1c8.05-2.87,20.38-2,31-2q23.505-.495,47-1h25c14.37-4.06,35.72,1.03,50-3h19v-1h17v-1h15v-1h14v-1h14v-1h12v-1h12v-1h11v-1h10v-1h11v-1h10c13.22-3.8,30.86-2.22,44-6q12-1.005,24-2c10.86-3.17,25.19-2.85,36-6q7.005-.495,14-1c7.41-2.2,17.63-2.83,25-5q6.495-.495,13-1,57.495-10.995,115-22v-1c3-.33,6-0.67,9-1v-1h4v-1c3-.33,6-0.67,9-1v-1h5v-1q6.495-1.005,13-2c20.03-6.53,43.38-9.97,63-17h4c4.53-1.56,10.54-3.47,15-5h4v-1h3v-1c2.33-.33,4.67-0.67,7-1v-1c2.33-.33,4.67-0.67,7-1v-1c2.33-.33,4.67-0.67,7-1v-1h4c24.71-9,52-15.42,76-25,2-.33,4-0.67,6-1v-1h3v-1h3v-1h3v-1h3v-1h3v-1h3v-1c2-.33,4-0.67,6-1v-1h2v-1c2-.33,4-0.67,6-1,4.36-1.75,9.65-4.23,14-6h3v-1h2v-1c2-.33,4-0.67,6-1v-1h2v-1h3v-1h3v-1h2v-1c2-.33,4-0.67,6-1v-1h2v-1h3v-1h2v-1c2-.33,4-0.67,6-1v-1h2v-1h3v-1h2v-1c1.67-.33,3.33-0.67,5-1v-1h3v-1c1.67-.33,3.33-0.67,5-1v-1h2v-1h3v-1c1.33-.33,2.67-0.67,4-1v-1h3v-1h2v-1h3v-1h2v-1q4.995-1.5,10-3v-1c1.33-.33,2.67-0.67,4-1v-1h3v-1c1.33-.33,2.67-0.67,4-1v-1h3v-1h2v-1c1.33-.33,2.67-0.67,4-1v-1h3v-1h2v-1c1.33-.33,2.67-0.67,4-1v-1h3v-1h2v-1c2-.67,4-1.33,6-2v-1h3v-1h2v-1h2v-1c2-.67,4-1.33,6-2v-1h3v-1c2-.67,4-1.33,6-2v-1c2-.67,4-1.33,6-2v-1c1.33-.33,2.67-0.67,4-1v-1h3v-1h2v-1c1.33-.33,2.67-0.67,4-1v-1c1.33-.33,2.67-0.67,4-1v-1c1.33-.33,2.67-0.67,4-1v-1h2v-1h2v-1h2v-1h2v-1h2v-1q7.995-3.495,16-7c0.33-.67.67-1.33,1-2h2v-1h2v-1h2v-1h2v-1h2v-1h2v-1h2v-1c1.33-.33,2.67-0.67,4-1,0.33-.67.67-1.33,1-2,1.33-.33,2.67-0.67,4-1v-1h2v-1h2v-1h2c0.33-.67.67-1.33,1-2h2v-1h2v-1h2v-1h2v-1h2c0.33-.67.67-1.33,1-2,2-.67,4-1.33,6-2,0.33-.67.67-1.33,1-2,2-.67,4-1.33,6-2,0.33-.67.67-1.33,1-2,2-.67,4-1.33,6-2,0.33-.67.67-1.33,1-2,1.33-.33,2.67-0.67,4-1,0.33-.67.67-1.33,1-2,2-.67,4-1.33,6-2,0.33-.67.67-1.33,1-2,1.33-.33,2.67-0.67,4-1,0.33-.67.67-1.33,1-2,1.33-.33,2.67-0.67,4-1,0.33-.67.67-1.33,1-2,1.33-.33,2.67-0.67,4-1v-1c1-.33,2-0.67,3-1,0.33-.67.67-1.33,1-2h2v-1h2c0.33-.67.67-1.33,1-2,1.33-.33,2.67-0.67,4-1,0.33-.67.67-1.33,1-2h2c0.33-.67.67-1.33,1-2h2c0.33-.67.67-1.33,1-2,1.33-.33,2.67-0.67,4-1,0.33-.67.67-1.33,1-2h2v-1c1-.33,2-0.67,3-1,0.33-.67.67-1.33,1-2h2c0.33-.67.67-1.33,1-2,1-.33,2-0.67,3-1v-1c1.33-.33,2.67-0.67,4-1v-1c1-.33,2-0.67,3-1,0.33-.67.67-1.33,1-2h2c0.33-.67.67-1.33,1-2h2c0.67-1,1.33-2,2-3h2c0.33-.67.67-1.33,1-2,1-.33,2-0.67,3-1v-1h2c0.33-.67.67-1.33,1-2h2c0.33-.67.67-1.33,1-2h2c0.67-1,1.33-2,2-3h2v-1c1-.33,2-0.67,3-1,0.33-.67.67-1.33,1-2h2c0.67-1,1.33-2,2-3h2c0.33-.67.67-1.33,1-2h2c0.33-.67.67-1.33,1-2,1-.33,2-0.67,3-1,0.67-1,1.33-2,2-3h2c0.67-1,1.33-2,2-3h2c0.33-.67.67-1.33,1-2h2c0.67-1,1.33-2,2-3h2c1-1.33,2-2.67,3-4h2c0.67-1,1.33-2,2-3h2c0.67-1,1.33-2,2-3h2c1-1.33,2-2.67,3-4,1-.33,2-0.67,3-1,0.33-.67.67-1.33,1-2h2c1-1.33,2-2.67,3-4h2c1-1.33,2-2.67,3-4h2c1.33-1.67,2.67-3.33,4-5h2c1.33-1.67,2.67-3.33,4-5h2c1.33-1.67,2.67-3.33,4-5h2c1.67-2,3.33-4,5-6h2q3-3.495,6-7h2q3.495-4.005,7-8c12.06-8.73,21.62-19.62,32-30,8.25-8.25,17.05-15.39,24-25q5.505-4.995,11-10v-2c1-.67,2-1.33,3-2,1-1.33,2-2.67,3-4h1v-2q3.495-3,7-6v-2c1.67-1.33,3.33-2.67,5-4v-2c1.67-1.33,3.33-2.67,5-4v-2c1.33-1,2.67-2,4-3v-2c1.33-1,2.67-2,4-3v-2c1-.67,2-1.33,3-2v-2c1.33-1,2.67-2,4-3v-2c1-.67,2-1.33,3-2,0.33-1,.67-2,1-3,0.67-.33,1.33-0.67,2-1v-2c0.67-.33,1.33-0.67,2-1v-2c1-.67,2-1.33,3-2v-2c1-.67,2-1.33,3-2v-2h1c0.33-1,.67-2,1-3,0.67-.33,1.33-0.67,2-1v-2c1-.67,2-1.33,3-2v-2c0.67-.33,1.33-0.67,2-1v-2c0.67-.33,1.33-0.67,2-1v-2c0.67-.33,1.33-0.67,2-1v-2c0.67-.33,1.33-0.67,2-1,0.33-1.33.67-2.67,1-4h1c0.33-1,.67-2,1-3,0.67-.33,1.33-0.67,2-1v-2c0.67-.33,1.33-0.67,2-1,0.33-1.33.67-2.67,1-4,0.67-.33,1.33-0.67,2-1,0.33-1.33.67-2.67,1-4,0.67-.33,1.33-0.67,2-1,0.33-1.33.67-2.67,1-4,0.67-.33,1.33-0.67,2-1,0.33-1.33.67-2.67,1-4,0.67-.33,1.33-0.67,2-1,0.33-1.33.67-2.67,1-4h1v-2c0.67-.33,1.33-0.67,2-1v-2h1v-2h1v-2h1v-2h1c0.33-1.33.67-2.67,1-4,0.67-.33,1.33-0.67,2-1v-2h1v-2h1v-2h1v-2h1v-2h1v-2h1v-2h1c0.67-2,1.33-4,2-6h1v-3h1v-2h1v-2h1c0.67-2,1.33-4,2-6h1v-3h1c0.33-1.33.67-2.67,1-4h1v-3h1c0.33-1.33.67-2.67,1-4h1v-3h1v-2h1c0.33-1.67.67-3.33,1-5h1c0.33-2,.67-4,1-6h1v-2h1c0.67-3,1.33-6,2-9h1v-3h1v-3h1v-3h1v-3h1v-3h1v-3h1v-3h1v-4h1v-3h1c0.33-2.33.67-4.67,1-7h1v-4h1c0.33-2.67.67-5.33,1-8h1c0.33-3,.67-6,1-9h1v-5c1.93-6.23,3.12-14.6,5-21q1.5-16.005,3-32h1v-12h1v-26c0.47-1.71,1.92-6.77,1-10h-1v-26h-1v-13h-1v-10h-1v-8h-1v-7h-1v-7c-1.4-4.71-2.58-11.44-4-16-0.33-3.33-.67-6.67-1-10h-1v-5h-1v-4h-1v-4h-1v-4h-1v-4h-1v-3h-1c-0.33-2.67-.67-5.33-1-8h-1c-0.67-3.33-1.33-6.67-2-10h-1v-3h-1v-3h-1v-3h-1v-3h-1c-0.33-2-.67-4-1-6h-1v-2h-1c-0.67-3-1.33-6-2-9h-1v-2h-1v-3h-1c-0.33-1.67-.67-3.33-1-5h-1v-2h-1v-3h-1c-0.33-1.33-.67-2.67-1-4h-1v-3h-1c-0.33-1.33-.67-2.67-1-4h-1v-3h-1v-2h-1v-2h-1v-2h-1c-0.67-2-1.33-4-2-6h-1v-3h-1c-0.67-2-1.33-4-2-6h-1v-2h-1c-0.33-1.33-.67-2.67-1-4-0.67-.33-1.33-0.67-2-1v-2h-1v-2h-1v-2h-1v-2h-1v-2h-1c-0.33-1.33-.67-2.67-1-4-0.67-.33-1.33-0.67-2-1v-2h-1v-2h-1v-2h-1v-2c-0.67-.33-1.33-0.67-2-1-0.33-1.33-.67-2.67-1-4-0.67-.33-1.33-0.67-2-1-0.33-1.33-.67-2.67-1-4-0.67-.33-1.33-0.67-2-1-0.33-1.33-.67-2.67-1-4-0.67-.33-1.33-0.67-2-1v-2h-1v-2c-0.67-.33-1.33-0.67-2-1v-2c-0.67-.33-1.33-0.67-2-1v-2c-0.67-.33-1.33-0.67-2-1-0.33-1.33-.67-2.67-1-4h-1c-0.33-1-.67-2-1-3-0.67-.33-1.33-0.67-2-1v-2h-1c-0.33-1-.67-2-1-3-0.67-.33-1.33-0.67-2-1v-2c-1-.67-2-1.33-3-2v-2c-0.67-.33-1.33-0.67-2-1v-2c-0.67-.33-1.33-0.67-2-1v-2c-1-.67-2-1.33-3-2v-2c-1-.67-2-1.33-3-2v-2c-0.67-.33-1.33-0.67-2-1v-2c-0.67-.33-1.33-0.67-2-1-0.33-1-.67-2-1-3-1-.67-2-1.33-3-2v-2c-1.33-1-2.67-2-4-3v-2c-1-.67-2-1.33-3-2v-2c-1.33-1-2.67-2-4-3v-2c-1.33-1-2.67-2-4-3v-2c-1.67-1.33-3.33-2.67-5-4v-2c-1.67-1.33-3.33-2.67-5-4v-2q-3.495-3-7-6v-2q-4.005-3.495-8-7v-2q-5.505-4.995-11-10c-6.43-8.88-14.38-15.39-22-23-9.7-9.7-18.73-19.85-30-28q-4.005-4.5-8-9h-2q-3-3.495-6-7h-2c-1.67-2-3.33-4-5-6h-2c-1.33-1.67-2.67-3.33-4-5h-2c-1.33-1.67-2.67-3.33-4-5h-2c-1-1.33-2-2.67-3-4h-2c-1-1.33-2-2.67-3-4h-2c-1-1.33-2-2.67-3-4h-2c-1-1.33-2-2.67-3-4h-2c-0.33-.67-0.67-1.33-1-2-1-.33-2-0.67-3-1-1-1.33-2-2.67-3-4h-2c-0.67-1-1.33-2-2-3h-2c-0.67-1-1.33-2-2-3h-2c-0.67-1-1.33-2-2-3h-2c-0.67-1-1.33-2-2-3-1-.33-2-0.67-3-1-0.33-.67-0.67-1.33-1-2h-2c-0.33-.67-0.67-1.33-1-2h-2c-0.67-1-1.33-2-2-3h-2c-0.33-.67-0.67-1.33-1-2h-2c-0.67-1-1.33-2-2-3h-2c-0.33-.67-0.67-1.33-1-2h-2c-0.67-1-1.33-2-2-3h-2c-0.33-.67-0.67-1.33-1-2-1-.33-2-0.67-3-1v-1h-2c-0.33-.67-0.67-1.33-1-2h-2c-0.33-.67-0.67-1.33-1-2h-2c-0.67-1-1.33-2-2-3h-2c-0.33-.67-0.67-1.33-1-2h-2c-0.33-.67-0.67-1.33-1-2h-2c-0.33-.67-0.67-1.33-1-2h-2c-0.33-.67-0.67-1.33-1-2-1.33-.33-2.67-0.67-4-1v-1c-1-.33-2-0.67-3-1-0.33-.67-0.67-1.33-1-2h-2c-0.33-.67-0.67-1.33-1-2h-2c-0.33-.67-0.67-1.33-1-2-1-.33-2-0.67-3-1v-1c-1.33-.33-2.67-0.67-4-1-0.33-.67-0.67-1.33-1-2h-2c-0.33-.67-0.67-1.33-1-2-1.33-.33-2.67-0.67-4-1v-1c-1-.33-2-0.67-3-1-0.33-.67-0.67-1.33-1-2-1.33-.33-2.67-0.67-4-1-0.33-.67-0.67-1.33-1-2h-2v-1h-2c-0.33-.67-0.67-1.33-1-2-1.33-.33-2.67-0.67-4-1-0.33-.67-0.67-1.33-1-2-1.33-.33-2.67-0.67-4-1-0.33-.67-0.67-1.33-1-2-1.33-.33-2.67-0.67-4-1-0.33-.67-0.67-1.33-1-2-1.33-.33-2.67-0.67-4-1-0.33-.67-0.67-1.33-1-2-2-.67-4-1.33-6-2-0.33-.67-0.67-1.33-1-2h-2v-1h-2v-1h-2c-0.33-.67-0.67-1.33-1-2-2-.67-4-1.33-6-2-0.33-.67-0.67-1.33-1-2h-2v-1h-2v-1h-2v-1h-2c-0.33-.67-0.67-1.33-1-2h-2v-1h-2v-1h-2v-1h-2v-1h-2c-0.33-.67-0.67-1.33-1-2h-2v-1h-2v-1h-2v-1h-2v-1h-2v-1c-1.33-.33-2.67-0.67-4-1-0.33-.67-0.67-1.33-1-2-2-.67-4-1.33-6-2v-1c-1.33-.33-2.67-0.67-4-1v-1c-1.33-.33-2.67-0.67-4-1v-1h-2v-1h-2v-1h-2v-1h-2v-1h-2v-1c-2-.67-4-1.33-6-2v-1c-1.33-.33-2.67-0.67-4-1v-1c-1.33-.33-2.67-0.67-4-1v-1c-1.33-.33-2.67-0.67-4-1v-1h-2v-1h-2v-1h-2v-1h-2v-1c-2-.67-4-1.33-6-2v-1c-1.33-.33-2.67-0.67-4-1v-1h-3v-1c-1.33-.33-2.67-0.67-4-1v-1h-2v-1h-2v-1c-2-.67-4-1.33-6-2v-1h-3v-1h-2v-1c-2-.67-4-1.33-6-2v-1h-3v-1h-2v-1c-1.33-.33-2.67-0.67-4-1v-1h-3v-1h-2v-1c-1.33-.33-2.67-0.67-4-1v-1h-3v-1c-1.33-.33-2.67-0.67-4-1v-1h-3v-1c-1.33-.33-2.67-0.67-4-1v-1h-3v-1c-1.33-.33-2.67-0.67-4-1v-1h-3c-2.65-1.19-2.8-2.48-7-3q1.005,12,2,24h1v11h1v14h1v23c1.85,6.66,1,17.67,1,26v11h-1v28h-1v17h-1v13h-1v11h-1v10h-1v9h-1v9c-1.91,6.73-3.29,17.52-4,25,1,0.67,2,1.33,3,2v1h2c0.33,0.67.67,1.33,1,2h2c0.67,1,1.33,2,2,3h2c0.67,1,1.33,2,2,3h2c0.67,1,1.33,2,2,3h2c0.67,1,1.33,2,2,3h2c1,1.33,2,2.67,3,4h2c1,1.33,2,2.67,3,4,1,0.33,2,.67,3,1,0.33,0.67.67,1.33,1,2h2c1.33,1.67,2.67,3.33,4,5h2c0.33,0.67.67,1.33,1,2h1c0.33,0.67.67,1.33,1,2h2c0.67,1,1.33,2,2,3h1c0.33,0.67.67,1.33,1,2h2c1.67,2,3.33,4,5,6,16.48,11.94,29.8,26.8,44,41,12.26,12.27,24.68,23.72,35,38,2,1.67,4,3.33,6,5,0.33,1,.67,2,1,3,1,0.67,2,1.33,3,2v2c1.67,1.33,3.33,2.67,5,4,0.33,1,.67,2,1,3,0.67,0.33,1.33.67,2,1v2c1.33,1,2.67,2,4,3v2c1,0.67,2,1.33,3,2v2c1,0.67,2,1.33,3,2v2c1,0.67,2,1.33,3,2v2c0.67,0.33,1.33.67,2,1v2c1,0.67,2,1.33,3,2v2c0.67,0.33,1.33.67,2,1,0.33,1,.67,2,1,3h1v2c0.67,0.33,1.33.67,2,1v2c0.67,0.33,1.33.67,2,1v2c0.67,0.33,1.33.67,2,1v2c0.67,0.33,1.33.67,2,1v2c0.67,0.33,1.33.67,2,1v2c0.67,0.33,1.33.67,2,1v2c0.67,0.33,1.33.67,2,1,0.33,1.33.67,2.67,1,4,0.67,0.33,1.33.67,2,1,0.33,1.33.67,2.67,1,4,0.67,0.33,1.33.67,2,1,0.33,1.33.67,2.67,1,4,0.67,0.33,1.33.67,2,1,0.67,2,1.33,4,2,6,0.67,0.33,1.33.67,2,1v2h1v2h1v2h1v2h1v2h1v2c0.67,0.33,1.33.67,2,1v2h1v2h1v3h1v2h1v3h1v4c4.63,14.16.66,28.99-5,39v2h-1c-0.33,1-.67,2-1,3-0.67.33-1.33,0.67-2,1v2c-1.67,1.33-3.33,2.67-5,4-0.33,1-.67,2-1,3h-2c-1.33,1.67-2.67,3.33-4,5h-2c-0.33.67-.67,1.33-1,2q-7.995,3.495-16,7h-5c-13.6,4.08-28.75-1.33-37-6h-2c-0.33-.67-0.67-1.33-1-2h-2c-0.67-1-1.33-2-2-3h-2q-3-3.495-6-7c-0.67-.33-1.33-0.67-2-1v-2c-1-.67-2-1.33-3-2v-2c-0.67-.33-1.33-0.67-2-1v-2h-1v-2h-1v-2h-1v-2h-1c-0.33-1.33-.67-2.67-1-4-0.67-.33-1.33-0.67-2-1v-2h-1v-2h-1v-2h-1v-2c-0.67-.33-1.33-0.67-2-1-0.33-1.33-.67-2.67-1-4-0.67-.33-1.33-0.67-2-1v-2h-1v-2h-1c-0.33-1-.67-2-1-3-0.67-.33-1.33-0.67-2-1-0.33-1.33-.67-2.67-1-4h-1c-0.33-1-.67-2-1-3-0.67-.33-1.33-0.67-2-1v-2h-1c-0.33-1-.67-2-1-3-0.67-.33-1.33-0.67-2-1v-2c-1-.67-2-1.33-3-2v-2c-0.67-.33-1.33-0.67-2-1v-2c-1-.67-2-1.33-3-2v-2c-0.67-.33-1.33-0.67-2-1v-2c-0.67-.33-1.33-0.67-2-1-0.33-1-.67-2-1-3-1.33-1-2.67-2-4-3v-2c-1-.67-2-1.33-3-2v-2c-1.33-1-2.67-2-4-3v-2c-1.67-1.33-3.33-2.67-5-4v-2c-2-1.67-4-3.33-6-5v-2q-4.005-3.495-8-7v-2q-11.505-10.995-23-22c-11.38-11.38-21.7-22.4-35-32-0.67-1-1.33-2-2-3h-1c-0.33-.67-0.67-1.33-1-2h-2c-1.33-1.67-2.67-3.33-4-5h-1v1h-1v4h-1v3h-1v3h-1v3h-1c-0.33,2.33-.67,4.67-1,7h-1c-0.33,2-.67,4-1,6h-1v3h-1v3h-1v3h-1v3h-1v3h-1c-0.67,3-1.33,6-2,9h-1v2h-1c-0.67,3-1.33,6-2,9h-1v2h-1c-0.33,2-.67,4-1,6h-1v2h-1v3h-1v2h-1c-0.33,1.67-.67,3.33-1,5h-1v3h-1v2h-1v3h-1v2h-1v3h-1v2h-1v3h-1c-0.33,1.33-.67,2.67-1,4h-1v3h-1c-0.33,1.33-.67,2.67-1,4h-1v3h-1v2h-1c-0.33,1.33-.67,2.67-1,4h-1v3h-1v2h-1v2h-1c-0.67,2-1.33,4-2,6h-1v3h-1v2h-1c-0.33,1.33-.67,2.67-1,4h-1v2h-1v2h-1v2h-1v2h-1v2h-1c-0.33,1.33-.67,2.67-1,4h-1c-0.33,1.33-.67,2.67-1,4h-1c-0.33,1.33-.67,2.67-1,4h-1v2h-1v2h-1v2h-1v2h-1c-0.33,1.33-.67,2.67-1,4-0.67.33-1.33,0.67-2,1v2h-1v2h-1v2h-1v2h-1c-0.33,1.33-.67,2.67-1,4-0.67.33-1.33,0.67-2,1v2h-1v2h-1v2h-1v2c-0.67.33-1.33,0.67-2,1-0.67,2-1.33,4-2,6-0.67.33-1.33,0.67-2,1-0.33,1.33-.67,2.67-1,4-0.67.33-1.33,0.67-2,1-0.33,1.33-.67,2.67-1,4-0.67.33-1.33,0.67-2,1-0.33,1.33-.67,2.67-1,4-0.67.33-1.33,0.67-2,1-0.33,1.33-.67,2.67-1,4-0.67.33-1.33,0.67-2,1-0.33,1.33-.67,2.67-1,4-0.67.33-1.33,0.67-2,1v2c-0.67.33-1.33,0.67-2,1-0.33,1.33-.67,2.67-1,4-0.67.33-1.33,0.67-2,1v2c-0.67.33-1.33,0.67-2,1v2c-0.67.33-1.33,0.67-2,1-0.33,1.33-.67,2.67-1,4-0.67.33-1.33,0.67-2,1v2h-1c-0.33,1-.67,2-1,3-0.67.33-1.33,0.67-2,1v2h-1c-0.33,1-.67,2-1,3-0.67.33-1.33,0.67-2,1v2c-1,.67-2,1.33-3,2v2c-0.67.33-1.33,0.67-2,1v2h-1c-0.33,1-.67,2-1,3-0.67.33-1.33,0.67-2,1v2c-1,.67-2,1.33-3,2v2c-0.67.33-1.33,0.67-2,1v2c-0.67.33-1.33,0.67-2,1-0.33,1-.67,2-1,3-1,.67-2,1.33-3,2v2c-0.67.33-1.33,0.67-2,1v2c-0.67.33-1.33,0.67-2,1-0.33,1-.67,2-1,3-1,.67-2,1.33-3,2v2c-1,.67-2,1.33-3,2v2c-1.33,1-2.67,2-4,3-0.33,1-.67,2-1,3-0.67.33-1.33,0.67-2,1v2c-1.33,1-2.67,2-4,3v2c-0.67.33-1.33,0.67-2,1v1c-0.67.33-1.33,0.67-2,1v2c-1.33,1-2.67,2-4,3v2c-1.67,1.33-3.33,2.67-5,4v2c-1.67,1.33-3.33,2.67-5,4v2c-2,1.67-4,3.33-6,5v2c-2,1.67-4,3.33-6,5v2q-4.005,3.495-8,7v2q-5.505,4.995-11,10c-6.96,9.61-15.75,16.75-24,25-7.93,7.93-14.75,16.31-24,23q-4.995,5.505-10,11h-2q-3.495,4.005-7,8h-2q-3,3.495-6,7h-2c-1.67,2-3.33,4-5,6h-2c-1.33,1.67-2.67,3.33-4,5h-2c-1,1.33-2,2.67-3,4h-2c-1.33,1.67-2.67,3.33-4,5h-2c-0.33.67-.67,1.33-1,2h-1c-0.33.67-.67,1.33-1,2h-2c-0.33.67-.67,1.33-1,2-1,.33-2,0.67-3,1-1,1.33-2,2.67-3,4h-2c-0.67,1-1.33,2-2,3h-2c-0.67,1-1.33,2-2,3h-2c-0.67,1-1.33,2-2,3h-2c-0.67,1-1.33,2-2,3h-2c-0.67,1-1.33,2-2,3-1,.33-2,0.67-3,1-0.33.67-.67,1.33-1,2h-2c-0.33.67-.67,1.33-1,2h-2c-0.67,1-1.33,2-2,3h-2c-0.33.67-.67,1.33-1,2h-2c-0.67,1-1.33,2-2,3h-2c-0.33.67-.67,1.33-1,2-1,.33-2,0.67-3,1v1h-2c-0.33.67-.67,1.33-1,2h-2c-0.33.67-.67,1.33-1,2h-2c-0.33.67-.67,1.33-1,2h-2c-0.33.67-.67,1.33-1,2h-2c-0.33.67-.67,1.33-1,2h-2c-0.33.67-.67,1.33-1,2h-2c-0.33.67-.67,1.33-1,2h-2c-0.33.67-.67,1.33-1,2h-2c-0.33.67-.67,1.33-1,2-1.33.33-2.67,0.67-4,1v1c-1,.33-2,0.67-3,1-0.33.67-.67,1.33-1,2h-2v1h-2c-0.33.67-.67,1.33-1,2-1.33.33-2.67,0.67-4,1-0.33.67-.67,1.33-1,2-1,.33-2,0.67-3,1v1c-2,.67-4,1.33-6,2-0.33.67-.67,1.33-1,2-1.33.33-2.67,0.67-4,1-0.33.67-.67,1.33-1,2-2,.67-4,1.33-6,2-0.33.67-.67,1.33-1,2-2,.67-4,1.33-6,2-0.33.67-.67,1.33-1,2h-2v1h-2v1h-2v1h-2c-0.33.67-.67,1.33-1,2h-2v1h-2v1h-2v1h-2v1h-2v1c-1.33.33-2.67,0.67-4,1-0.33.67-.67,1.33-1,2h-2v1h-2v1h-2v1h-2v1h-2v1h-2v1h-2v1h-2v1h-2v1h-2v1c-1.33.33-2.67,0.67-4,1v1h-2v1h-3v1h-2v1h-2v1h-2v1c-2,.67-4,1.33-6,2v1h-3v1h-2v1c-2,.67-4,1.33-6,2v1h-3v1c-1.33.33-2.67,0.67-4,1v1h-3v1c-1.33.33-2.67,0.67-4,1v1h-3v1c-1.33.33-2.67,0.67-4,1v1h-3v1h-2v1c-1.67.33-3.33,0.67-5,1v1h-3v1h-2v1h-3v1h-2v1c-1.67.33-3.33,0.67-5,1v1c-2,.33-4,0.67-6,1v1h-2v1c-3,.67-6,1.33-9,2v1h-2v1h-3v1h-3v1h-3v1h-3v1h-3v1h-3v1h-3v1h-3v1h-3v1c-2,.33-4,0.67-6,1v1c-2,.33-4,0.67-6,1v1h-4v1h-3v1h-3v1c-2.33.33-4.67,0.67-7,1v1c-2.33.33-4.67,0.67-7,1v1c-2.33.33-4.67,0.67-7,1v1h-4v1h-4v1h-4v1h-4c-19.66,6.71-43.45,8.77-64,15q-6,.495-12,1c-10.21,3.05-23.54,2.99-34,6h-8v1h-8v1h-10v1h-10v1h-12v1q-16.995.495-34,1v1h-53c-8.32,0-19.36.88-26-1h-19v-1h-14v-1h-12v-1h-11v-1h-9c-11.64-3.37-26.6-2.67-38-6h-7v-1h-6v-1h-6v-1h-5v-1h-6c-5.94-1.83-14.07-3.14-20-5h-5c-11.94-3.88-26.32-6.02-38-10q-9.495-1.995-19-4-35.49-11.505-71-23v-1h-2v-1c-2-.33-4-0.67-6-1v-1h-2v-1h-3v-1h-2v-1c-2-.33-4-0.67-6-1v-1h-2v-1h-3v-1h-2v-1h-3v-1c-1.33-.33-2.67-0.67-4-1v-1h-3v-1h-2v-1h-3v-1c-1.33-.33-2.67-0.67-4-1v-1h-3v-1h-2v-1h-2v-1h-2v-1h-3v-1h-2v-1c-2-.67-4-1.33-6-2v-1h-3v-1c-1.33-.33-2.67-0.67-4-1v-1c-2-.67-4-1.33-6-2v-1h-2v-1c-2-.67-4-1.33-6-2v-1h-3v-1c-1.33-.33-2.67-0.67-4-1v-1c-1.33-.33-2.67-0.67-4-1-0.33-.67-0.67-1.33-1-2-1.33-.33-2.67-0.67-4-1v-1c-1.33-.33-2.67-0.67-4-1v-1h-2v-1h-2v-1h-2v-1h-2v-1c-1.33-.33-2.67-0.67-4-1-0.33-.67-0.67-1.33-1-2h-2v-1h-2v-1h-2v-1h-2v-1h-2c-0.33-.67-0.67-1.33-1-2-2-.67-4-1.33-6-2-0.33-.67-0.67-1.33-1-2-2-.67-4-1.33-6-2-0.33-.67-0.67-1.33-1-2-2-.67-4-1.33-6-2-0.33-.67-0.67-1.33-1-2-1.33-.33-2.67-0.67-4-1-0.33-.67-0.67-1.33-1-2-1.33-.33-2.67-0.67-4-1-0.33-.67-0.67-1.33-1-2-1.33-.33-2.67-0.67-4-1v-1c-1-.33-2-0.67-3-1-0.33-.67-0.67-1.33-1-2-1.33-.33-2.67-0.67-4-1-0.33-.67-0.67-1.33-1-2h-2c-0.33-.67-0.67-1.33-1-2-1-.33-2-0.67-3-1v-1c-1.33-.33-2.67-0.67-4-1-0.33-.67-0.67-1.33-1-2h-2c-0.33-.67-0.67-1.33-1-2h-2c-0.33-.67-0.67-1.33-1-2h-2v-1c-1-.33-2-0.67-3-1-0.33-.67-0.67-1.33-1-2h-2v-1c-1-.33-2-0.67-3-1-0.33-.67-0.67-1.33-1-2h-2c-0.67-1-1.33-2-2-3h-2c-0.33-.67-0.67-1.33-1-2h-2c-0.33-.67-0.67-1.33-1-2h-2c-0.67-1-1.33-2-2-3h-2c-0.33-.67-0.67-1.33-1-2h-2c-0.67-1-1.33-2-2-3h-2c-0.67-1-1.33-2-2-3h-2c-0.33-.67-0.67-1.33-1-2h-2c-0.67-1-1.33-2-2-3h-2c-0.67-1-1.33-2-2-3h-2c-1-1.33-2-2.67-3-4h-2c-0.33-.67-0.67-1.33-1-2-1-.33-2-0.67-3-1-1-1.33-2-2.67-3-4h-2c-0.67-1-1.33-2-2-3h-2c-1-1.33-2-2.67-3-4h-2c-1.33-1.67-2.67-3.33-4-5h-2c-0.33-.67-0.67-1.33-1-2h-1c-0.33-.67-0.67-1.33-1-2h-2c-1.67-2-3.33-4-5-6h-2c-0.67-1-1.33-2-2-3-1-.67-2-1.33-3-2v-1h-2q-3-3.495-6-7h-2q-3.5-4.005-7-8h-2c-0.333-.67-0.667-1.33-1-2l-4-3q-3.5-4.005-7-8c-8.149-5.9-14.025-13.02-21-20l-19-18v-2q-6-5.505-12-11v-2q-4.5-4.005-9-8v-2l-7-6v-2c-1.667-1.33-3.333-2.67-5-4v-2c-2-1.67-4-3.33-6-5v-2c-0.667-.33-1.333-0.67-2-1v-1c-0.667-.33-1.333-0.67-2-1v-2c-1.667-1.33-3.333-2.67-5-4v-2l-4-3v-2c-0.667-.33-1.333-0.67-2-1v-1c-0.667-.33-1.333-0.67-2-1v-2c-0.667-.33-1.333-0.67-2-1q-0.5-1.5-1-3l-4-3v-2c-1-.67-2-1.33-3-2v-2c-1-.67-2-1.33-3-2v-2c-1-.67-2-1.33-3-2q-0.5-1.5-1-3c-0.667-.33-1.333-0.67-2-1v-2c-0.667-.33-1.333-0.67-2-1v-2c-1-.67-2-1.33-3-2v-2c-0.667-.33-1.333-0.67-2-1v-2c-1-.67-2-1.33-3-2v-2h-1q-0.5-1.5-1-3c-0.667-.33-1.333-0.67-2-1v-2c-1-.67-2-1.33-3-2v-2c-0.667-.33-1.333-0.67-2-1q-0.5-1.5-1-3h-1v-2c-0.667-.33-1.333-0.67-2-1v-2c-0.667-.33-1.333-0.67-2-1v-2c-0.667-.33-1.333-0.67-2-1v-2c-0.667-.33-1.333-0.67-2-1v-2c-0.667-.33-1.333-0.67-2-1-0.333-1.33-.667-2.67-1-4-0.667-.33-1.333-0.67-2-1v-2c-0.667-.33-1.333-0.67-2-1v-2c-0.667-.33-1.333-0.67-2-1-0.333-1.33-.667-2.67-1-4h-1q-0.5-1.5-1-3c-0.667-.33-1.333-0.67-2-1-0.333-1.33-.667-2.67-1-4-0.667-.33-1.333-0.67-2-1-0.333-1.33-.667-2.67-1-4-0.667-.33-1.333-0.67-2-1-0.333-1.33-.667-2.67-1-4-0.667-.33-1.333-0.67-2-1-0.333-1.33-.667-2.67-1-4-0.667-.33-1.333-0.67-2-1q-1-3-2-6c-0.667-.33-1.333-0.67-2-1v-2h-1v-2h-1v-2h-1v-2c-0.667-.33-1.333-0.67-2-1v-2h-1v-2h-1v-2h-1v-2c-0.667-.33-1.333-0.67-2-1v-2h-1v-2h-1v-2h-1v-2h-1v-2h-1v-2h-1v-2h-1v-2c-0.667-.33-1.333-0.67-2-1v-2h-1v-2h-1v-2h-1v-2h-1v-2h-1v-2h-1v-2h-1q-1-3-2-6h-1v-3h-1c-0.333-1.33-.667-2.67-1-4h-1v-2h-1v-2h-1q-1-3-2-6h-1v-3h-1v-2h-1q-1-3-2-6h-1v-3h-1c-0.333-1.33-.667-2.67-1-4h-1v-3h-1c-0.333-1.33-.667-2.67-1-4h-1v-3h-1c-0.333-1.33-.667-2.67-1-4h-1v-3h-1v-2h-1v-3h-1v-2h-1c-0.333-1.67-.667-3.33-1-5h-1v-3h-1v-2h-1v-3h-1v-2h-1v-3h-1v-3h-1v-2h-1v-3h-1q-0.5-3-1-6h-1v-2h-1q-0.5-3-1-6c-2.056-5.17-4.747-11.02-6-17h-2c-3.117,5.5-11.428,11.43-16,16q-17.5,19.005-35,38v2l-4,3v2l-4,3v2l-4,3v2c-1,.67-2,1.33-3,2q-0.5,1.5-1,3c-0.667.33-1.333,0.67-2,1v2c-0.667.33-1.333,0.67-2,1v2c-1,.67-2,1.33-3,2v2c-0.667.33-1.333,0.67-2,1q-0.5,1.5-1,3h-1v2c-0.667.33-1.333,0.67-2,1v2c-0.667.33-1.333,0.67-2,1v2c-0.667.33-1.333,0.67-2,1v2c-0.667.33-1.333,0.67-2,1q-0.5,1.5-1,3h-1c-0.333,1.33-.667,2.67-1,4-0.667.33-1.333,0.67-2,1-0.333,1.33-.667,2.67-1,4-0.667.33-1.333,0.67-2,1q-1,3-2,6c-0.667.33-1.333,0.67-2,1v2h-1v2h-1v2h-1v2c-0.667.33-1.333,0.67-2,1q-1,3-2,6h-1v2h-1v2h-1q-1,3-2,6h-1v3h-1v2h-1c-0.333,1.33-.667,2.67-1,4h-1v3h-1c-0.333,1.33-.667,2.67-1,4h-1v3h-1v2h-1v3h-1v2h-1q-0.5,3-1,6h-1v2h-1v3h-1v3h-1v3h-1v4h-1v3h-1v3h-1v4h-1v4h-1v4h-1v4h-1v4h-1v5c-1.49,4.84-2.549,12.04-4,17l-2,20v10h-1c-1.445,5.12-.081,28.17,1,32v14h1v9h1v7h1q0.5,6,1,12h1v5h1v5h1v4h1v4h1v4h1c0.333,2.67.667,5.33,1,8h1v3h1v3h1c0.667,3.33,1.333,6.67,2,10h1v2h1q1,4.5,2,9h1c0.333,1.67.667,3.33,1,5h1v2h1v3h1c0.333,1.33.667,2.67,1,4h1v3h1v2h1q1,3,2,6h1v3h1q1,3,2,6h1v2h1c0.333,1.33.667,2.67,1,4,0.667,0.33,1.333.67,2,1v2h1v2h1v2h1v2h1v2c0.667,0.33,1.333.67,2,1q1,3,2,6c0.667,0.33,1.333.67,2,1,0.333,1.33.667,2.67,1,4,0.667,0.33,1.333.67,2,1v2c0.667,0.33,1.333.67,2,1v2h1v2c0.667,0.33,1.333.67,2,1v2c0.667,0.33,1.333.67,2,1v2c0.667,0.33,1.333.67,2,1v2h1q0.5,1.5,1,3c0.667,0.33,1.333.67,2,1v2c0.667,0.33,1.333.67,2,1v2c1,0.67,2,1.33,3,2v2c1,0.67,2,1.33,3,2v2c1,0.67,2,1.33,3,2v2c1,0.67,2,1.33,3,2v2c1,0.67,2,1.33,3,2v2l4,3v2l4,3v2c2,1.67,4,3.33,6,5v2c2,1.67,4,3.33,6,5v2q5.5,4.995,11,10v2q4.5,4.005,9,8l17,18h2q5,5.505,10,11h2q3.5,4.005,7,8h2c1.333,1.67,2.667,3.33,4,5h2l5,6h2c1,1.33,2,2.67,3,4h2c1,1.33,2,2.67,3,4h2c1,1.33,2,2.67,3,4h2l2,3h2c1,1.33,2,2.67,3,4h2l2,3c1,0.33,2,.67,3,1,0.333,0.67.667,1.33,1,2h2c0.333,0.67.667,1.33,1,2h2l2,3h2l2,3h2c0.333,0.67.667,1.33,1,2h2l2,3h2c0.333,0.67.667,1.33,1,2,1,0.33,2,.67,3,1v1h2c0.333,0.67.667,1.33,1,2h2c0.333,0.67.667,1.33,1,2h2c0.333,0.67.667,1.33,1,2h2c0.333,0.67.667,1.33,1,2h2c0.333,0.67.667,1.33,1,2h2c0.333,0.67.667,1.33,1,2h2c0.333,0.67.667,1.33,1,2h2c0.333,0.67.667,1.33,1,2h2c0.333,0.67.667,1.33,1,2,1.333,0.33,2.667.67,4,1v1c1,0.33,2,.67,3,1,0.333,0.67.667,1.33,1,2h2v1h2c0.333,0.67.667,1.33,1,2,1.333,0.33,2.667.67,4,1,0.333,0.67.667,1.33,1,2,1,0.33,2,.67,3,1v1c2,0.67,4,1.33,6,2,0.333,0.67.667,1.33,1,2,1.333,0.33,2.667.67,4,1,0.333,0.67.667,1.33,1,2,2,0.67,4,1.33,6,2,0.333,0.67.667,1.33,1,2,2,0.67,4,1.33,6,2,0.333,0.67.667,1.33,1,2,1.333,0.33,2.667.67,4,1v1h2v1h2c0.333,0.67.667,1.33,1,2h2v1h2v1h2v1h2v1c1.333,0.33,2.667.67,4,1,0.333,0.67.667,1.33,1,2,1.333,0.33,2.667.67,4,1v1h2v1h2v1h2v1h2v1c1.333,0.33,2.667.67,4,1v1c1.333,0.33,2.667.67,4,1v1c1.333,0.33,2.667.67,4,1v1c1.333,0.33,2.667.67,4,1v1c1.333,0.33,2.667.67,4,1v1h2v1h2v1h2v1h2v1c1.333,0.33,2.667.67,4,1v1h2v1h3v1h2v1h2v1c2,0.67,4,1.33,6,2v1h3v1h2v1c2,0.67,4,1.33,6,2v1h3v1c1.333,0.33,2.667.67,4,1v1h3v1c1.333,0.33,2.667.67,4,1v1h3v1c1.333,0.33,2.667.67,4,1v1h3v1c1.333,0.33,2.67.67,4,1v1h3v1h2v1h3v1h2v1c1.67,0.33,3.33.67,5,1v1h3v1h2v1h3v1h2v1h3v1h2v1c2,0.33,4,.67,6,1v1h2v1c2,0.33,4,.67,6,1v1h2v1h3v1h3v1h2v1l72,24q10.5,2.505,21,5c22.52,8.14,48.69,12.48,72,20h5v1h4v1h4v1c3,0.33,6,.67,9,1v1c3,0.33,6,.67,9,1v1c3.33,0.33,6.67.67,10,1,12.1,3.91,27.6,5.24,40,9q52.5,7.995,105,16h8v1h9v1h9v1h9v1h10v1h11v1h11v1h12v1h13v1h15v1h17v1q12.495,0.495,25,1c6.86,0.04,15.74-.48,21,1h76c13.25,0,36.18,2.05,47-1h26v-1c5.77-1.63,14.85.46,20-1h11q10.005-.495,20-1v-1h13v-1h12v-1h12v-1h10v-1h10v-1q9.495-.495,19-1v-1h8v-1h9c13.35-3.88,30.76-3.08,44-7q6.495-.495,13-1c16.15-4.81,36.08-5.16,52-10q7.995-1.005,16-2c13.21-4.17,29.05-5.83,42-10h5v-1h4v-1h5c8.67-2.83,19.38-5.06,28-8,2.67-.33,5.33-0.67,8-1v-1q6-1.005,12-2v-1q5.505-1.005,11-2v-1c2.33-.33,4.67-0.67,7-1v-1h3v-1c2.33-.33,4.67-0.67,7-1v-1c2.33-.33,4.67-0.67,7-1v-1c3.33-.67,6.67-1.33,10-2v-1q8.505-1.995,17-4c28.1-10.24,58.42-19.21,85-31h3v-1h2v-1c2-.33,4-0.67,6-1v-1h2v-1h3v-1c1.33-.33,2.67-0.67,4-1v-1c1.67-.33,3.33-0.67,5-1v-1h3v-1h2v-1h3v-1c1.33-.33,2.67-0.67,4-1v-1h3v-1c1.33-.33,2.67-0.67,4-1v-1h3v-1h2v-1c1.33-.33,2.67-0.67,4-1v-1h3v-1h2v-1c1.33-.33,2.67-0.67,4-1v-1h3v-1h2v-1h2v-1c2-.67,4-1.33,6-2v-1h3v-1c2-.67,4-1.33,6-2v-1c2-.67,4-1.33,6-2v-1c2-.67,4-1.33,6-2v-1c1.33-.33,2.67-0.67,4-1v-1c1.33-.33,2.67-0.67,4-1v-1h2v-1h2v-1h2v-1h2v-1h2v-1q7.995-3.495,16-7c0.33-.67.67-1.33,1-2h2v-1h2v-1h2v-1h2v-1h2c0.33-.67.67-1.33,1-2h2v-1h2v-1h2v-1h2c0.33-.67.67-1.33,1-2,2-.67,4-1.33,6-2,0.33-.67.67-1.33,1-2,2-.67,4-1.33,6-2,0.33-.67.67-1.33,1-2,1.33-.33,2.67-0.67,4-1,0.33-.67.67-1.33,1-2,1.33-.33,2.67-0.67,4-1,0.33-.67.67-1.33,1-2,1.33-.33,2.67-0.67,4-1,0.33-.67.67-1.33,1-2,1.33-.33,2.67-0.67,4-1v-1c1-.33,2-0.67,3-1,0.33-.67.67-1.33,1-2,1.33-.33,2.67-0.67,4-1v-1c1-.33,2-0.67,3-1,0.33-.67.67-1.33,1-2,1.33-.33,2.67-0.67,4-1,0.33-.67.67-1.33,1-2h2c0.33-.67.67-1.33,1-2h2c0.33-.67.67-1.33,1-2h2c0.33-.67.67-1.33,1-2h2c0.33-.67.67-1.33,1-2h2c0.33-.67.67-1.33,1-2h2c0.33-.67.67-1.33,1-2h2c0.33-.67.67-1.33,1-2h2c0.33-.67.67-1.33,1-2h2c0.33-.67.67-1.33,1-2h2v-1h2v-1h3v-1h2v-1c2.33-.33,4.67-0.67,7-1,10.96-3.54,21.72-1.72,31,2h3c23.8,10.45,44.37,41.35,30,74v3h-1v2h-1v2c-0.67.33-1.33,0.67-2,1v2c-0.67.33-1.33,0.67-2,1v2c-1,.67-2,1.33-3,2v2h-1c-1,1.33-2,2.67-3,4h-2c-1,1.33-2,2.67-3,4-1,.33-2,0.67-3,1-0.33.67-.67,1.33-1,2h-2c-0.33.67-.67,1.33-1,2-1,.33-2,0.67-3,1v1h-2c-0.33.67-.67,1.33-1,2h-2c-0.33.67-.67,1.33-1,2h-2c-0.33.67-.67,1.33-1,2h-2c-0.33.67-.67,1.33-1,2h-2c-0.33.67-.67,1.33-1,2-1.33.33-2.67,0.67-4,1v1c-1,.33-2,0.67-3,1-0.33.67-.67,1.33-1,2h-2c-0.33.67-.67,1.33-1,2-1.33.33-2.67,0.67-4,1v1c-1,.33-2,0.67-3,1-0.33.67-.67,1.33-1,2h-2v1h-2c-0.33.67-.67,1.33-1,2-1.33.33-2.67,0.67-4,1-0.33.67-.67,1.33-1,2-1.33.33-2.67,0.67-4,1-0.33.67-.67,1.33-1,2-1.33.33-2.67,0.67-4,1-0.33.67-.67,1.33-1,2-1.33.33-2.67,0.67-4,1-0.33.67-.67,1.33-1,2-2,.67-4,1.33-6,2-0.33.67-.67,1.33-1,2-2,.67-4,1.33-6,2-0.33.67-.67,1.33-1,2h-2v1h-2v1h-2v1h-2c-0.33.67-.67,1.33-1,2h-2v1h-2v1h-2v1h-2v1h-2c-0.33.67-.67,1.33-1,2q-7.995,3.495-16,7c-0.33.67-.67,1.33-1,2h-2v1h-2v1h-2v1h-2v1h-2v1h-2v1h-2v1h-2v1h-2v1h-2v1c-1.33.33-2.67,0.67-4,1v1h-2v1h-3v1c-1.33.33-2.67,0.67-4,1v1h-2v1h-2v1h-2v1c-2,.67-4,1.33-6,2v1l-9,3v1c-1.33.33-2.67,0.67-4,1v1h-3v1h-2v1c-1.33.33-2.67,0.67-4,1v1h-3v1c-1.33.33-2.67,0.67-4,1v1h-3v1h-2v1c-1.33.33-2.67,0.67-4,1v1h-3v1h-2v1h-3v1c-1.33.33-2.67,0.67-4,1v1c-1.67.33-3.33,0.67-5,1v1h-3v1h-2v1h-3v1c-1.33.33-2.67,0.67-4,1v1h-3v1h-2v1c-2,.33-4,0.67-6,1v1h-2v1c-1.67.33-3.33,0.67-5,1v1c-2,.33-4,0.67-6,1v1h-2v1h-3v1h-2v1c-3,.67-6,1.33-9,2v1h-2v1c-3,.67-6,1.33-9,2v1h-2v1q-9,2.505-18,5v1h-2v1c-2,.33-4,0.67-6,1v1h-3v1h-3v1h-3v1h-3v1h-3v1h-4v1h-3v1h-3v1h-3v1h-3v1h-3v1l-13,3v1c-3.33.67-6.67,1.33-10,2v1h-4v1h-3v1h-4c-17.47,6.32-38.01,9.88-56,16q-10.005,1.995-20,4v1c-3,.33-6,0.67-9,1v1h-4v1h-4v1c-3,.33-6,0.67-9,1v1h-5c-11.67,3.78-26.12,5.39-38,9-3.67.33-7.33,0.67-11,1-13.78,4.32-30.98,4.81-45,9h-6v1h-7v1h-6v1q-7.005.495-14,1c-10.7,3.16-25.18,2.88-36,6h-8v1h-9v1h-9v1h-9v1h-9v1h-10v1q-10.995.495-22,1v1h-12s-0.07.83-2,1h-11v1h-14v1h-17v1h-18v1h-24v1h-35c-6.94,1.94-18.38,1-27,1-17.78,0-37.84.39-54-1-11.7-1-25.65-.12-36-1-6.93-.59-15.58.53-21-1h-11q-12-.495-24-1v-1h-14v-1h-13v-1h-12v-1h-12v-1h-10v-1h-10v-1h-10v-1h-9v-1h-9v-1h-8c-11.5-3.34-26.59-2.67-38-6q-7.005-.495-14-1c-11.31-3.36-25.77-3.64-37-7q-6-.495-12-1c-6.5-1.99-15.43-2.97-22-5h-5c-5.93-1.87-14.07-3.14-20-5h-5c-15.45-4.89-33.85-7.11-49-12h-5v-1h-4c-4.71-1.61-11.29-3.39-16-5-2.67-.33-5.33-0.67-8-1-12.52-4.52-27.56-7.52-40-12h-4v-1h-3v-1h-4c-26.1-9.5-55.17-16.16-80-27-2-.33-4-0.67-6-1-4.36-1.75-9.65-4.23-14-6h-3v-1h-2v-1c-2-.33-4-0.67-6-1v-1h-2v-1h-3v-1h-2v-1h-3v-1h-3v-1h-2v-1h-3v-1h-2v-1h-3v-1h-2v-1h-3v-1h-2v-1h-3v-1c-1.667-.33-3.333-0.67-5-1v-1h-2v-1h-3v-1c-1.333-.33-2.667-0.67-4-1v-1h-3v-1h-2v-1h-3v-1c-1.333-.33-2.667-0.67-4-1v-1h-3v-1h-2v-1c-1.333-.33-2.667-0.67-4-1v-1h-3v-1h-2v-1c-1.333-.33-2.667-0.67-4-1v-1h-3v-1h-2v-1c-1.333-.33-2.667-0.67-4-1v-1h-3v-1c-2-.67-4-1.33-6-2v-1h-2v-1h-2v-1h-2v-1h-3v-1h-2v-1c-1.333-.33-2.667-0.67-4-1v-1h-2v-1h-2v-1h-2v-1h-2v-1h-2v-1c-2-.67-4-1.33-6-2v-1c-1.333-.33-2.667-0.67-4-1v-1c-1.333-.33-2.667-0.67-4-1v-1h-2v-1h-2v-1h-2v-1h-2v-1h-2v-1c-2-.67-4-1.33-6-2-0.333-.67-0.667-1.33-1-2h-2v-1h-2v-1h-2v-1h-2v-1c-1.333-.33-2.667-0.67-4-1-0.333-.67-0.667-1.33-1-2h-2v-1h-2v-1h-2v-1h-2v-1h-2c-0.333-.67-0.667-1.33-1-2-2-.67-4-1.33-6-2-0.333-.67-0.667-1.33-1-2-2-.67-4-1.33-6-2-0.333-.67-0.667-1.33-1-2-2-.67-4-1.33-6-2-0.333-.67-0.667-1.33-1-2-1.333-.33-2.667-0.67-4-1-0.333-.67-0.667-1.33-1-2-1.333-.33-2.667-0.67-4-1-0.333-.67-0.667-1.33-1-2-1.333-.33-2.667-0.67-4-1v-1c-1-.33-2-0.67-3-1-0.333-.67-0.667-1.33-1-2h-2v-1h-2c-0.333-.67-0.667-1.33-1-2-1.333-.33-2.667-0.67-4-1-0.333-.67-0.667-1.33-1-2h-2c-0.333-.67-0.667-1.33-1-2h-2c-0.333-.67-0.667-1.33-1-2-1.333-.33-2.667-0.67-4-1-0.333-.67-0.667-1.33-1-2h-2v-1c-1-.33-2-0.67-3-1-0.333-.67-0.667-1.33-1-2h-2c-0.333-.67-0.667-1.33-1-2h-2c-0.333-.67-0.667-1.33-1-2h-2c-0.333-.67-0.667-1.33-1-2h-2v-1c-1-.33-2-0.67-3-1-0.333-.67-0.667-1.33-1-2h-2l-2-3h-2v-1c-1-.33-2-0.67-3-1-0.333-.67-0.667-1.33-1-2h-2l-2-3h-2c-0.333-.67-0.667-1.33-1-2h-2c-0.333-.67-0.667-1.33-1-2-1-.33-2-0.67-3-1l-2-3h-2l-2-3h-2l-2-3h-2l-2-3h-2l-2-3h-2l-2-3h-2c-0.333-.67-0.667-1.33-1-2h-1c-0.333-.67-0.667-1.33-1-2h-2c-1-1.33-2-2.67-3-4h-2c-1.333-1.67-2.667-3.33-4-5h-2c-1-1.33-2-2.67-3-4h-2l-5-6h-2l-5-6h-2q-3.5-4.005-7-8c-11.679-8.45-20.952-18.95-31-29q-7.5-7.005-15-14v-2q-5.5-4.995-11-10v-2l-7-6v-2h-1l-2-3c-1-.67-2-1.33-3-2v-2c-1.667-1.33-3.333-2.67-5-4v-2l-4-3v-2l-4-3v-2l-4-3v-2c-1-.67-2-1.33-3-2v-2c-1-.67-2-1.33-3-2v-2c-1-.67-2-1.33-3-2q-0.5-1.5-1-3c-0.667-.33-1.333-0.67-2-1v-2h-1q-0.5-1.5-1-3c-0.667-.33-1.333-0.67-2-1v-2c-1-.67-2-1.33-3-2v-2c-0.667-.33-1.333-0.67-2-1v-2c-0.667-.33-1.333-0.67-2-1v-2c-0.667-.33-1.333-0.67-2-1v-2c-0.667-.33-1.333-0.67-2-1v-2c-0.667-.33-1.333-0.67-2-1-0.333-1.33-.667-2.67-1-4-0.667-.33-1.333-0.67-2-1v-2c-0.667-.33-1.333-0.67-2-1-0.333-1.33-.667-2.67-1-4-0.667-.33-1.333-0.67-2-1-0.333-1.33-.667-2.67-1-4-0.667-.33-1.333-0.67-2-1-0.333-1.33-.667-2.67-1-4-0.667-.33-1.333-0.67-2-1-0.333-1.33-.667-2.67-1-4h-1v-2c-0.667-.33-1.333-0.67-2-1v-2h-1v-2h-1v-2h-1v-2h-1c-0.333-1.33-.667-2.67-1-4-0.667-.33-1.333-0.67-2-1q-1-3-2-6h-1v-2h-1l-2-6h-1v-3h-1v-2h-1l-2-6h-1v-3h-1v-2h-1v-2h-1v-2h-1v-3h-1v-2h-1v-3h-1v-2h-1v-3h-1v-2h-1q-0.5-3-1-6h-1v-2h-1q-0.5-3-1-6h-1v-3h-1v-3h-1v-3h-1v-3h-1v-3h-1v-3h-1v-4h-1v-3h-1v-3h-1c-0.333-2.67-.667-5.33-1-8h-1v-4h-1v-4h-1v-4h-1q-0.5-4.5-1-9h-1v-5h-1q-0.5-5.505-1-11h-1q-0.5-7.005-1-14h-1q-0.5-8.505-1-17h-1q-0.5-19.005-1-38c0-8.61-.957-20.08,1-27v-13h1v-9h1q1-10.995,2-22,5-22.5,10-45,8-23.505,16-47h1v-2h1v-3h1v-2h1v-3h1v-2h1v-2h1v-2h1v-3h1v-2h1v-2h1l2-6h1v-3h1l2-6h1v-2h1c0.333-1.33.667-2.67,1-4,0.667-.33,1.333-0.67,2-1v-2h1v-2h1v-2h1v-2h1c0.333-1.33.667-2.67,1-4,0.667-.33,1.333-0.67,2-1q1-3,2-6c0.667-.33,1.333-0.67,2-1v-2h1v-2c0.667-.33,1.333-0.67,2-1,0.333-1.33.667-2.67,1-4,0.667-.33,1.333-0.67,2-1v-2h1v-2h1q0.5-1.5,1-3c0.667-.33,1.333-0.67,2-1,0.333-1.33.667-2.67,1-4h1q0.5-1.5,1-3c0.667-.33,1.333-0.67,2-1v-2c0.667-.33,1.333-0.67,2-1v-2h1q0.5-1.5,1-3c0.667-.33,1.333-0.67,2-1v-2c1-.67,2-1.33,3-2v-2h1q0.5-1.5,1-3c0.667-.33,1.333-0.67,2-1v-2c0.667-.33,1.333-0.67,2-1q0.5-1.5,1-3c1-.67,2-1.33,3-2v-2c0.667-.33,1.333-0.67,2-1q0.5-1.5,1-3c1-.67,2-1.33,3-2v-2l4-3v-2l4-3v-2l4-3v-2c1-.67,2-1.33,3-2v-1c0.667-.33,1.333-0.67,2-1v-2c2-1.67,4-3.33,6-5,10.263-14.17,22.794-25.8,35-38,12.172-12.17,23.867-24.79,38-35l5-6h2l5-6h2c1-1.33,2-2.67,3-4h2c2.573-1.85,1.677-3.82,6-5q-5-33-10-66v-10h-1v-10h-1v-12h-1v-14h-1v-18c-2.348-8.34-1-21.91-1-32v-40h1v-13h1q1-13.5,2-27c-2,.67-4,1.33-6,2v1h-2v1h-3v1h-2v1h-2v1c-2,.67-4,1.33-6,2v1h-3v1c-2,.67-4,1.33-6,2v1h-2v1c-2,.67-4,1.33-6,2v1c-2,.67-4,1.33-6,2v1h-3v1h-2v1h-2v1h-2v1h-2v1h-2v1h-2v1c-1.333.33-2.667,0.67-4,1v1h-2v1h-2v1h-2v1h-2v1h-2v1c-1.333.33-2.667,0.67-4,1-0.333.67-.667,1.33-1,2-1.333.33-2.667,0.67-4,1v1h-2v1h-2v1h-2v1h-2v1h-2v1h-2v1h-2v1h-2c-0.333.67-.667,1.33-1,2h-2v1h-2v1h-2v1h-2v1c-1.333.33-2.667,0.67-4,1-0.333.67-.667,1.33-1,2h-2v1h-2v1h-2v1h-2v1h-2c-0.333.67-.667,1.33-1,2h-2v1h-2v1h-2c-0.333.67-.667,1.33-1,2h-2v1h-2v1h-2v1h-2c-0.333.67-.667,1.33-1,2h-2v1h-2c-0.333.67-.667,1.33-1,2-2,.67-4,1.33-6,2-0.333.67-.667,1.33-1,2-1.333.33-2.667,0.67-4,1-0.333.67-.667,1.33-1,2-1.333.33-2.667,0.67-4,1-0.333.67-.667,1.33-1,2-1.333.33-2.667,0.67-4,1-0.333.67-.667,1.33-1,2-1.333.33-2.667,0.67-4,1-0.333.67-.667,1.33-1,2-1.333.33-2.667,0.67-4,1-0.333.67-.667,1.33-1,2h-2v1h-2c-0.333.67-.667,1.33-1,2h-2c-0.333.67-.667,1.33-1,2-1.333.33-2.667,0.67-4,1-0.333.67-.667,1.33-1,2h-2c-0.333.67-.667,1.33-1,2h-2c-0.333.67-.667,1.33-1,2-1.333.33-2.667,0.67-4,1-0.333.67-.667,1.33-1,2h-2c-0.333.67-.667,1.33-1,2h-2c-0.333.67-.667,1.33-1,2h-2c-0.333.67-.667,1.33-1,2h-2c-0.333.67-.667,1.33-1,2h-2v1c-1,.33-2,0.67-3,1-0.333.67-.667,1.33-1,2h-2c-0.333.67-.667,1.33-1,2h-2c-0.333.67-.667,1.33-1,2h-2c-0.333.67-.667,1.33-1,2h-2v1c-1,.33-2,0.67-3,1-0.333.67-.667,1.33-1,2h-2l-2,3h-2v1c-1,.33-2,0.67-3,1-0.333.67-.667,1.33-1,2h-2l-2,3h-2c-0.333.67-.667,1.33-1,2h-2c-0.333.67-.667,1.33-1,2-1,.33-2,0.67-3,1l-2,3h-2c-0.333.67-.667,1.33-1,2h-2c-0.333.67-.667,1.33-1,2-1,.33-2,0.67-3,1l-2,3h-2l-2,3h-2l-2,3h-2c-1,1.33-2,2.67-3,4-1,.33-2,0.67-3,1-0.333.67-.667,1.33-1,2h-2c-1,1.33-2,2.67-3,4-1,.33-2,0.67-3,1-0.333.67-.667,1.33-1,2h-2c-0.333.67-.667,1.33-1,2h-1c-0.333.67-.667,1.33-1,2h-2c-1.333,1.67-2.667,3.33-4,5h-2c-1,1.33-2,2.67-3,4h-2l-5,6h-2c-1.333,1.67-2.667,3.33-4,5h-2q-3,3.495-6,7h-2q-3,3.495-6,7h-2q-5,5.505-10,11c-9.975,7.22-17.428,16.43-26,25-13.865,13.87-28.355,26.89-40,43-2,1.67-4,3.33-6,5v2c-0.667.33-1.333,0.67-2,1v1c-1,.67-2,1.33-3,2v2c-1.667,1.33-3.333,2.67-5,4v2l-4,3v2l-4,3v2c-1,.67-2,1.33-3,2v2c-1,.67-2,1.33-3,2v2c-1,.67-2,1.33-3,2v2c-1,.67-2,1.33-3,2v2c-1,.67-2,1.33-3,2v2c-1,.67-2,1.33-3,2v2c-0.667.33-1.333,0.67-2,1v2c-1,.67-2,1.33-3,2v2c-0.667.33-1.333,0.67-2,1l-1,3h-1v2c-0.667.33-1.333,0.67-2,1v2c-0.667.33-1.333,0.67-2,1v2c-0.667.33-1.333,0.67-2,1v2c-0.667.33-1.333,0.67-2,1v2c-0.667.33-1.333,0.67-2,1v2c-0.667.33-1.333,0.67-2,1v2h-1v2c-0.667.33-1.333,0.67-2,1-0.333,1.33-.667,2.67-1,4h-1q-0.5,1.5-1,3c-0.667.33-1.333,0.67-2,1v2h-1v2c-0.667.33-1.333,0.67-2,1q-1,3-2,6c-0.667.33-1.333,0.67-2,1-0.333,1.33-.667,2.67-1,4h-1v2h-1v2c-0.667.33-1.333,0.67-2,1v2h-1v2h-1v2h-1v2h-1c-0.333,1.33-.667,2.67-1,4-0.667.33-1.333,0.67-2,1q-1,3-2,6h-1v2h-1q-1,3-2,6h-1v3h-1v2h-1v2h-1q-1,3-2,6h-1v3h-1v2h-1v2h-1v2h-1v3h-1v2h-1v3h-1c-0.333,1.33-.667,2.67-1,4h-1v3h-1v2h-1q-0.5,3-1,6h-1v2h-1v3h-1q-1,4.5-2,9h-1v2h-1c-0.333,2.33-.667,4.67-1,7h-1v3h-1v3h-1v3h-1v3h-1v4h-1v3h-1v4h-1v4h-1v4h-1v4h-1c-0.333,2.67-.667,5.33-1,8h-1v5c-3.185,10.25-3.892,23.31-7,34v7h-1v9h-1v11h-1v15c-2.17,7.86-2.21,40.17,0,48v15h1v11h1v9c2.768,9.51,3.142,21.84,6,31v5h1v5h1q0.5,4.5,1,9h1v4h1v4h1c0.333,2.67.667,5.33,1,8,3.7,10.28,7.061,22.11,11,32q1,4.5,2,9h1v2h1q0.5,3,1,6h1v2h1v3h1c0.333,1.67.667,3.33,1,5h1v2h1v3h1c0.333,1.33.667,2.67,1,4h1v3h1v2h1c0.333,1.33.667,2.67,1,4h1v3h1v2h1c0.333,1.33.667,2.67,1,4h1c0.333,1.33.667,2.67,1,4h1c0.333,1.33.667,2.67,1,4h1v2h1v2h1v2h1v2h1v2h1v2h1v2h1v2h1v2h1v2h1v2c0.667,0.33,1.333.67,2,1v2h1q1,3,2,6c0.667,0.33,1.333.67,2,1q1,3,2,6c0.667,0.33,1.333.67,2,1,0.333,1.33.667,2.67,1,4,0.667,0.33,1.333.67,2,1,0.333,1.33.667,2.67,1,4,0.667,0.33,1.333.67,2,1,0.333,1.33.667,2.67,1,4,0.667,0.33,1.333.67,2,1v2c0.667,0.33,1.333.67,2,1v2c0.667,0.33,1.333.67,2,1,0.333,1.33.667,2.67,1,4h1q0.5,1.5,1,3c0.667,0.33,1.333.67,2,1v2h1q0.5,1.5,1,3c0.667,0.33,1.333.67,2,1v2c1,0.67,2,1.33,3,2v2h1q0.5,1.5,1,3c0.667,0.33,1.333.67,2,1v2c1,0.67,2,1.33,3,2v2c0.667,0.33,1.333.67,2,1v2c1,0.67,2,1.33,3,2v2c1,0.67,2,1.33,3,2v2c1,0.67,2,1.33,3,2v2l4,3q0.5,1.5,1,3c0.667,0.33,1.333.67,2,1v2c0.667,0.33,1.333.67,2,1v1c0.667,0.33,1.333.67,2,1v2l4,3v2c1.667,1.33,3.333,2.67,5,4v2c1.667,1.33,3.333,2.67,5,4v2c2,1.67,4,3.33,6,5v2q4,3.495,8,7v2l10,9c6.427,8.88,14.384,15.39,22,23,7.3,7.29,13.484,14.84,22,21q5,5.505,10,11h2l8,9h2l5,6h2l5,6h2c1.333,1.67,2.667,3.33,4,5h2c1.333,1.67,2.667,3.33,4,5h2c1,1.33,2,2.67,3,4h2c1.333,1.67,2.667,3.33,4,5h2c0.333,0.67.667,1.33,1,2,1,0.33,2,.67,3,1,1,1.33,2,2.67,3,4h2c1,1.33,2,2.67,3,4h2l2,3h2l2,3h2l2,3h2l2,3h2l2,3c1,0.33,2,.67,3,1,0.333,0.67.667,1.33,1,2h2c0.333,0.67.667,1.33,1,2h2l2,3h2c0.333,0.67.667,1.33,1,2h2l2,3h2c0.333,0.67.667,1.33,1,2h2l2,3h2c0.333,0.67.667,1.33,1,2h2v1c1,0.33,2,.67,3,1,0.333,0.67.667,1.33,1,2h2l2,3h2c0.333,0.67.667,1.33,1,2,1,0.33,2,.67,3,1v1h2c0.333,0.67.667,1.33,1,2h2c0.333,0.67.667,1.33,1,2h2c0.333,0.67.667,1.33,1,2h2c0.333,0.67.667,1.33,1,2,1.333,0.33,2.667.67,4,1,0.333,0.67.667,1.33,1,2h2c0.333,0.67.667,1.33,1,2h2c0.333,0.67.667,1.33,1,2h2c0.333,0.67.667,1.33,1,2,1.333,0.33,2.667.67,4,1v1c1,0.33,2,.67,3,1,0.333,0.67.667,1.33,1,2,1.333,0.33,2.667.67,4,1v1c1,0.33,2,.67,3,1,0.333,0.67.667,1.33,1,2h2v1h2c0.333,0.67.667,1.33,1,2,1.333,0.33,2.667.67,4,1,0.333,0.67.667,1.33,1,2,1.333,0.33,2.667.67,4,1,0.333,0.67.667,1.33,1,2,1.333,0.33,2.667.67,4,1,0.333,0.67.667,1.33,1,2,1.333,0.33,2.667.67,4,1,0.333,0.67.667,1.33,1,2,1.333,0.33,2.667.67,4,1,0.333,0.67.667,1.33,1,2h2v1h2v1h2c0.333,0.67.667,1.33,1,2,2,0.67,4,1.33,6,2,0.333,0.67.667,1.33,1,2h2v1h2v1h2c0.333,0.67.667,1.33,1,2h2v1h2v1h2v1h2c0.333,0.67.667,1.33,1,2h2v1h2v1h2v1h2v1h2c0.333,0.67.667,1.33,1,2h2v1h2v1h2v1h2v1h2v1h2c0.333,0.67.667,1.33,1,2,1.333,0.33,2.667.67,4,1v1h2v1h2v1h2v1h2v1c1.333,0.33,2.667.67,4,1v1c1.333,0.33,2.667.67,4,1v1c1.333,0.33,2.667.67,4,1v1c2,0.67,4,1.33,6,2v1c1.333,0.33,2.667.67,4,1v1c1.333,0.33,2.667.67,4,1v1h2v1h2v1h2v1h2v1h2v1h2v1h2v1h2v1h2v1h2v1c2,0.67,4,1.33,6,2v1h3v1h2v1h2v1h2v1c2,0.67,4,1.33,6,2v1h3v1h2v1c2,0.67,4,1.33,6,2v1h3v1h2v1c2,0.67,4,1.33,6,2v1h3v1h2v1c1.333,0.33,2.667.67,4,1v1h3v1c1.333,0.33,2.667.67,4,1v1h3v1c1.333,0.33,2.667.67,4,1v1h3v1c1.333,0.33,2.667.67,4,1v1h3v1c1.333,0.33,2.667.67,4,1v1h3v1h2v1h3v1c1.667,0.33,3.333.67,5,1v1c1.333,0.33,2.667.67,4,1v1h3v1h2v1h3v1h2v1h3v1h2v1h3v1c1.333,0.33,2.667.67,4,1v1c1.333,0.33,2.667.67,4,1v1c1,0.33,2,.67,3,1,0.333,0.67.667,1.33,1,2h2l2,3,7,6v2c1,0.67,2,1.33,3,2,0.333,1.33.667,2.67,1,4,0.667,0.33,1.333.67,2,1,0.333,1.67.667,3.33,1,5h1v2h1v3h1v4c3.07,9.53,2.3,21.39-1,30v3h-1v2h-1c-0.333,1.67-.667,3.33-1,5-0.667.33-1.333,0.67-2,1-0.333,1.33-.667,2.67-1,4-1,.67-2,1.33-3,2v2c-1,.67-2,1.33-3,2l-5,6h-2l-2,3h-2c-0.333.67-.667,1.33-1,2-2,.67-4,1.33-6,2v1h-2v1c-2,.33-4,0.67-6,1v1q-6,.495-12,1v1h-8v-1h-7v-1h-4v-1h-3v-1h-3v-1h-2v-1h-3v-1h-2v-1h-3v-1h-2v-1h-3v-1c-1.667-.33-3.333-0.67-5-1v-1h-2v-1h-3v-1c-1.333-.33-2.667-0.67-4-1v-1h-3v-1h-2v-1h-3v-1c-1.333-.33-2.667-0.67-4-1v-1h-3v-1c-1.333-.33-2.667-0.67-4-1v-1h-3v-1c-1.333-.33-2.667-0.67-4-1v-1h-3v-1h-2v-1c-1.333-.33-2.667-0.67-4-1v-1h-3v-1c-1.333-.33-2.667-0.67-4-1v-1h-3v-1h-2v-1c-2-.67-4-1.33-6-2v-1l-9-3v-1h-2v-1l-9-3v-1c-2-.67-4-1.33-6-2v-1h-3v-1c-2-.67-4-1.33-6-2v-1c-2-.67-4-1.33-6-2v-1c-2-.67-4-1.33-6-2v-1c-1.333-.33-2.667-0.67-4-1v-1c-1.333-.33-2.667-0.67-4-1v-1h-2v-1h-2v-1h-2v-1h-2v-1c-2-.67-4-1.33-6-2v-1c-1.333-.33-2.667-0.67-4-1v-1c-1.333-.33-2.667-0.67-4-1v-1c-1.333-.33-2.667-0.67-4-1v-1h-2v-1h-2v-1h-2v-1h-2v-1c-2-.67-4-1.33-6-2-0.333-.67-0.667-1.33-1-2h-2v-1h-2v-1h-2v-1h-2v-1c-1.333-.33-2.667-0.67-4-1-0.333-.67-0.667-1.33-1-2h-2v-1h-2v-1h-2v-1h-2v-1h-2c-0.333-.67-0.667-1.33-1-2h-2v-1h-2v-1h-2v-1h-2c-0.333-.67-0.667-1.33-1-2h-2v-1h-2v-1h-2v-1h-2c-0.333-.67-0.667-1.33-1-2-2-.67-4-1.33-6-2-0.333-.67-0.667-1.33-1-2h-2v-1h-2c-0.333-.67-0.667-1.33-1-2-2-.67-4-1.33-6-2-0.333-.67-0.667-1.33-1-2-1.333-.33-2.667-0.67-4-1-0.333-.67-0.667-1.33-1-2-1.333-.33-2.667-0.67-4-1-0.333-.67-0.667-1.33-1-2-1.333-.33-2.667-0.67-4-1-0.333-.67-0.667-1.33-1-2-1.333-.33-2.667-0.67-4-1-0.333-.67-0.667-1.33-1-2-1.333-.33-2.667-0.67-4-1-0.333-.67-0.667-1.33-1-2h-2v-1h-2v-1c-1-.33-2-0.67-3-1-0.333-.67-0.667-1.33-1-2-1.333-.33-2.667-0.67-4-1-0.333-.67-0.667-1.33-1-2h-2c-0.333-.67-0.667-1.33-1-2-1-.33-2-0.67-3-1v-1c-1.333-.33-2.667-0.67-4-1-0.333-.67-0.667-1.33-1-2h-2v-1c-1-.33-2-0.67-3-1-0.333-.67-0.667-1.33-1-2h-2c-0.333-.67-0.667-1.33-1-2-1-.33-2-0.67-3-1v-1c-1.333-.33-2.667-0.67-4-1v-1c-1-.33-2-0.67-3-1-0.333-.67-0.667-1.33-1-2h-2v-1c-1-.33-2-0.67-3-1-0.333-.67-0.667-1.33-1-2h-2l-2-3h-2c-0.333-.67-0.667-1.33-1-2-1-.33-2-0.67-3-1v-1h-2c-0.333-.67-0.667-1.33-1-2h-2c-0.333-.67-0.667-1.33-1-2h-2l-2-3h-2v-1c-1-.33-2-0.67-3-1-0.333-.67-0.667-1.33-1-2h-2l-2-3h-2c-0.333-.67-0.667-1.33-1-2h-2c-0.333-.67-0.667-1.33-1-2-1-.33-2-0.67-3-1l-2-3h-2c-0.333-.67-0.667-1.33-1-2h-2c-0.333-.67-0.667-1.33-1-2-1-.33-2-0.67-3-1l-2-3h-2l-2-3h-2c-0.333-.67-0.667-1.33-1-2-1-.33-2-0.67-3-1-1-1.33-2-2.67-3-4h-2l-2-3h-2l-2-3h-2c-1-1.33-2-2.67-3-4h-2c-1-1.33-2-2.67-3-4h-2c-1-1.33-2-2.67-3-4h-2c-1-1.33-2-2.67-3-4h-2c-0.333-.67-0.667-1.33-1-2-1-.67-2-1.33-3-2v-1h-2c-1.333-1.67-2.667-3.33-4-5h-2c-1.333-1.67-2.667-3.33-4-5h-2l-5-6h-2q-3-3.495-6-7h-2q-3.5-4.005-7-8h-2q-4.5-4.995-9-10h-2l-17-18h-2l-5-6-16-15v-2q-8.5-7.995-17-16v-2l-10-9v-2l-7-6v-2l-7-6v-2c-0.667-.33-1.333-0.67-2-1l-2-3h-1v-2c-1.667-1.33-3.333-2.67-5-4v-2c-0.667-.33-1.333-0.67-2-1v-1c-0.667-.33-1.333-0.67-2-1v-2c-1.667-1.33-3.333-2.67-5-4v-2c-0.667-.33-1.333-0.67-2-1q-0.5-1.5-1-3l-4-3v-2c-1-.67-2-1.33-3-2v-2c-1-.67-2-1.33-3-2v-2c-1-.67-2-1.33-3-2v-2c-1-.67-2-1.33-3-2v-2c-1-.67-2-1.33-3-2q-0.5-1.5-1-3c-0.667-.33-1.333-0.67-2-1v-2c-0.667-.33-1.333-0.67-2-1v-2c-1-.67-2-1.33-3-2v-2c-0.667-.33-1.333-0.67-2-1q-0.5-1.5-1-3h-1v-2c-0.667-.33-1.333-0.67-2-1v-2c-0.667-.33-1.333-0.67-2-1v-2c-0.667-.33-1.333-0.67-2-1v-2c-0.667-.33-1.333-0.67-2-1v-2c-0.667-.33-1.333-0.67-2-1v-2c-0.667-.33-1.333-0.67-2-1v-2c-0.667-.33-1.333-0.67-2-1v-2c-0.667-.33-1.333-0.67-2-1v-2c-0.667-.33-1.333-0.67-2-1-0.333-1.33-.667-2.67-1-4H99l-1-3c-0.667-.33-1.333-0.67-2-1-0.333-1.33-.667-2.67-1-4-0.667-.33-1.333-0.67-2-1-0.333-1.33-.667-2.67-1-4-0.667-.33-1.333-0.67-2-1l-2-6c-0.667-.33-1.333-0.67-2-1v-2H85v-2c-0.667-.33-1.333-0.67-2-1-0.333-1.33-.667-2.67-1-4H81v-2H80v-2c-0.667-.33-1.333-0.67-2-1-0.333-1.33-.667-2.67-1-4H76v-2H75v-2H74v-2H73v-2H72v-2c-0.667-.33-1.333-0.67-2-1l-2-6H67v-2H66v-2H65l-2-6H62v-3H61v-2H60v-2H59v-2H58l-2-6H55v-3H54v-2H53c-0.333-1.33-.667-2.67-1-4H51v-3H50c-0.333-1.33-.667-2.67-1-4H48v-3H47v-2H46v-3H45v-2H44c-0.333-1.67-.667-3.33-1-5H42v-3H41v-2H40v-3H39v-2H38v-3H37l-1-6H35v-2H34v-3H33l-1-6H31v-3H30v-3H29v-3H28v-3H27c-0.667-3.33-1.333-6.67-2-10H24q-1.5-7.005-3-14H20c-0.333-2.67-.667-5.33-1-8H18v-4H17v-4H16v-4H15l-1-9H13v-5c-2.519-8.09-3.552-18.65-6-27v-7H6v-7H5v-8H4v-9H3v-10H2v-14H1v-26H0c-1.418-5.03.421-13.45,1-17,1.317-8.09-.884-18.33,1-25v-14H3q0.5-9.495,1-19,4-24.495,8-49c2.558-8.1,4.333-18.16,7-26,0.333-2.67.667-5.33,1-8h1c0.333-2.33.667-4.67,1-7h1v-3h1c0.667-3.33,1.333-6.67,2-10h1v-4h1v-3h1v-3h1v-3h1v-3h1v-3h1l1-6h1v-2h1l2-9h1v-2h1v-3h1v-2h1v-3h1v-2h1v-3h1v-2h1v-3h1v-2h1v-3h1c0.333-1.33.667-2.67,1-4h1v-3h1v-2h1v-2h1v-2h1v-3h1v-2h1v-2h1v-2h1l2-6h1v-3h1l2-6h1v-2h1v-2h1l2-6c0.667-.33,1.333-0.67,2-1v-2h1v-2h1v-2h1v-2h1v-2h1v-2h1v-2c0.667-.33,1.333-0.67,2-1l2-6c0.667-.33,1.333-0.67,2-1l2-6c0.667-.33,1.333-0.67,2-1l2-6c0.667-.33,1.333-0.67,2-1,0.333-1.33.667-2.67,1-4h1l1-3c0.667-.33,1.333-0.67,2-1,0.333-1.33.667-2.67,1-4,0.667-.33,1.333-0.67,2-1,0.333-1.33.667-2.67,1-4,0.667-.33,1.333-0.67,2-1v-2c0.667-.33,1.333-0.67,2-1v-2c0.667-.33,1.333-0.67,2-1v-2c0.667-.33,1.333-0.67,2-1v-2c0.667-.33,1.333-0.67,2-1v-2h1l1-3c0.667-.33,1.333-0.67,2-1v-2c0.667-.33,1.333-0.67,2-1v-2h1l1-3c0.667-.33,1.333-0.67,2-1v-2c1-.67,2-1.33,3-2v-2h1l1-3c0.667-.33,1.333-0.67,2-1v-2c0.667-.33,1.333-0.67,2-1l1-3c1-.67,2-1.33,3-2v-2c1-.67,2-1.33,3-2v-2c1-.67,2-1.33,3-2v-2c1-.67,2-1.33,3-2v-2c1-.67,2-1.33,3-2v-2l4-3v-2l4-3v-2l4-3v-2l4-3v-2c1.667-1.33,3.333-2.67,5-4v-2c2-1.67,4-3.33,6-5v-2c2-1.67,4-3.33,6-5v-2l4-3c1-1.33,2-2.67,3-4h1v-2q4.5-4.005,9-8v-2l19-18v-2q4.5-4.005,9-8l8-9h2q9-9.495,18-19h2q5-5.505,10-11h2q3.5-4.005,7-8h2q3-3.495,6-7h2l5-6h2c1.333-1.67,2.667-3.33,4-5h2c0.333-.67.667-1.33,1-2,1-.67,2-1.33,3-2v-1h2c1.333-1.67,2.667-3.33,4-5h2c0.333-.67.667-1.33,1-2h1c0.333-.67.667-1.33,1-2h2c1-1.33,2-2.67,3-4h2c1-1.33,2-2.67,3-4h2c0.333-.67.667-1.33,1-2,1-.33,2-0.67,3-1,1-1.33,2-2.67,3-4h2l2-3h2l2-3h2c1-1.33,2-2.67,3-4h2l2-3h2l2-3h2c0.333-.67.667-1.33,1-2h2c0.333-.67.667-1.33,1-2,1-.33,2-0.67,3-1l2-3h2c0.333-.67.667-1.33,1-2h2l2-3h2c0.333-.67.667-1.33,1-2h2l2-3h2c0.333-.67.667-1.33,1-2h2l2-3h2c0.333-.67.667-1.33,1-2,1-.33,2-0.67,3-1v-1h2c0.333-.67.667-1.33,1-2h2c0.333-.67.667-1.33,1-2h2v-1c1-.33,2-0.67,3-1,0.333-.67.667-1.33,1-2h2l2-3h2c0.333-.67.667-1.33,1-2,1.333-.33,2.667-0.67,4-1,0.333-.67.667-1.33,1-2h2c0.333-.67.667-1.33,1-2h2v-1c1-.33,2-0.67,3-1,0.333-.67.667-1.33,1-2h2c0.333-.67.667-1.33,1-2,1-.33,2-0.67,3-1v-1c1.333-.33,2.667-0.67,4-1,0.333-.67.667-1.33,1-2h2c0.333-.67.667-1.33,1-2h2c0.333-.67.667-1.33,1-2h2v-1h2c0.333-.67.667-1.33,1-2,1.333-.33,2.667-0.67,4-1v-1c1-.33,2-0.67,3-1,0.333-.67.667-1.33,1-2h2v-1h2c0.333-.67.667-1.33,1-2,1.333-.33,2.667-0.67,4-1,0.333-.67.667-1.33,1-2,1.333-.33,2.667-0.67,4-1,0.333-.67.667-1.33,1-2,1.333-.33,2.667-0.67,4-1,0.333-.67.667-1.33,1-2,1.333-.33,2.667-0.67,4-1,0.333-.67.667-1.33,1-2,2-.67,4-1.33,6-2,0.333-.67.667-1.33,1-2,1.333-.33,2.667-0.67,4-1,0.333-.67.667-1.33,1-2,2-.67,4-1.33,6-2,0.333-.67.667-1.33,1-2h2v-1h2v-1h2v-1h2c0.333-.67.667-1.33,1-2h2v-1h2v-1h2v-1h2c0.333-.67.667-1.33,1-2h2v-1h2v-1h2v-1h2v-1h2c0.333-.67.667-1.33,1-2h2v-1h2v-1h2v-1h2v-1c1.333-.33,2.667-0.67,4-1,0.333-.67.667-1.33,1-2h2v-1h2v-1h2v-1h2v-1c2-.67,4-1.33,6-2v-1c1.333-.33,2.667-0.67,4-1v-1c1.333-.33,2.667-0.67,4-1v-1h2v-1h2v-1h2v-1h2v-1c2-.67,4-1.33,6-2v-1c1.333-.33,2.667-0.67,4-1v-1c1.333-.33,2.667-0.67,4-1v-1c1.333-.33,2.667-0.67,4-1v-1h2v-1h2v-1h2v-1h2v-1c2-.67,4-1.33,6-2v-1c1.333-.33,2.667-0.67,4-1v-1h3v-1h2v-1h2v-1h2v-1c2-.67,4-1.33,6-2v-1h3v-1h2v-1h2v-1c2-.67,4-1.33,6-2v-1h3v-1h2v-1c1.333-.33,2.667-0.67,4-1v-1h3v-1h2v-1c1.333-.33,2.667-0.67,4-1v-1h3v-1c1.333-.33,2.667-0.67,4-1v-1h3v-1c1.333-.33,2.667-0.67,4-1v-1h3v-1c1.333-.33,2.667-0.67,4-1v-1h3v-1c1.333-.33,2.667-0.67,4-1v-1h3v-1h2v-1h3v-1c1.333-.33,2.667-0.67,4-1v-1c1.667-.33,3.333-0.67,5-1v-1h3v-1h2v-1h3v-1h2v-1c3.719-1.65,6.795-.75,9-4h1q0.5-3,1-6h1v-3h1v-3h1v-2h1q1-4.5,2-9h1v-2h1q0.5-3,1-6h1c0.333-1.67.667-3.33,1-5h1v-2h1v-3h1v-2h1q0.5-3,1-6h1c0.333-1.33.667-2.67,1-4h1v-3h1v-2h1v-3h1c0.333-1.67.667-3.33,1-5h1c0.333-1.33.667-2.67,1-4h1v-3h1c0.333-1.33.667-2.67,1-4h1v-3h1c0.333-1.33.667-2.67,1-4h1v-3h1v-2h1c0.333-1.33.667-2.67,1-4h1v-3h1v-2h1q1-3,2-6h1v-3h1q1-3,2-6h1v-2h1v-2h1c0.333-1.67.667-3.33,1-5h1v-2h1c0.333-1.33.667-2.67,1-4h1c0.333-1.33.667-2.67,1-4h1c0.333-1.33.667-2.67,1-4h1v-2h1v-2h1v-2h1v-2h1q3.5-7.995,7-16h1c0.333-1.33.667-2.67,1-4h1c0.333-1.33.667-2.67,1-4h1v-2h1v-2h1v-2h1v-2h1q1-3,2-6c0.667-.33,1.333-0.67,2-1v-2h1v-2h1v-2h1v-2h1v-2h1c0.333-1.33.667-2.67,1-4,0.667-.33,1.333-0.67,2-1,0.333-1.33.667-2.67,1-4h1v-2h1v-2h1v-2h1v-2c0.667-.33,1.333-0.67,2-1v-2h1v-2h1v-2h1v-2c0.667-.33,1.333-0.67,2-1q1-3,2-6h1v-2c0.667-.33,1.333-0.67,2-1q1-3,2-6c0.667-.33,1.333-0.67,2-1q1-3,2-6c0.667-.33,1.333-0.67,2-1q1-3,2-6c0.667-.33,1.333-0.67,2-1q1-3,2-6c0.667-.33,1.333-0.67,2-1,0.333-1.33.667-2.67,1-4,0.667-.33,1.333-0.67,2-1q1-3,2-6c0.667-.33,1.333-0.67,2-1v-2h1v-2c0.667-.33,1.333-0.67,2-1,0.333-1.33.667-2.67,1-4,0.667-.33,1.333-0.67,2-1,0.333-1.33.667-2.67,1-4,0.667-.33,1.333-0.67,2-1,0.333-1.33.667-2.67,1-4,0.667-.33,1.333-0.67,2-1,0.333-1.33.667-2.67,1-4,0.667-.33,1.333-0.67,2-1,0.333-1.33.667-2.67,1-4,0.667-.33,1.333-0.67,2-1,0.333-1.33.667-2.67,1-4,0.667-.33,1.333-0.67,2-1v-2h1v-2h1q0.5-1.5,1-3c0.667-.33,1.333-0.67,2-1,0.333-1.33.667-2.67,1-4,0.667-.33,1.333-0.67,2-1,0.333-1.33.667-2.67,1-4h1q0.5-1.5,1-3c0.667-.33,1.333-0.67,2-1,0.333-1.33.667-2.67,1-4h1q0.5-1.5,1-3c0.667-.33,1.333-0.67,2-1v-2h1v-2c0.667-.33,1.333-0.67,2-1v-2c0.667-.33,1.333-0.67,2-1,0.333-1.33.667-2.67,1-4,0.667-.33,1.333-0.67,2-1v-2c0.667-.33,1.333-0.67,2-1v-2c0.667-.33,1.333-0.67,2-1,0.333-1.33.667-2.67,1-4,0.667-.33,1.333-0.67,2-1v-2c0.667-.33,1.333-0.67,2-1v-2c0.667-.33,1.333-0.67,2-1,0.333-1.33.667-2.67,1-4,0.667-.33,1.333-0.67,2-1v-2h1q0.5-1.5,1-3c0.667-.33,1.333-0.67,2-1v-2c0.667-.33,1.333-0.67,2-1q0.5-1.5,1-3h1c0.333-1.33.667-2.67,1-4,0.667-.33,1.333-0.67,2-1v-2c0.667-.33,1.333-0.67,2-1v-2c0.667-.33,1.333-0.67,2-1v-2c0.667-.33,1.333-0.67,2-1v-2c0.667-.33,1.333-0.67,2-1v-2c0.667-.33,1.333-0.67,2-1v-2h1q0.5-1.5,1-3c0.667-.33,1.333-0.67,2-1v-2c0.667-.33,1.333-0.67,2-1v-2h1q0.5-1.5,1-3c0.667-.33,1.333-0.67,2-1v-2c0.667-.33,1.333-0.67,2-1v-2c0.667-.33,1.333-0.67,2-1v-2c0.667-.33,1.333-0.67,2-1v-2c0.667-.33,1.333-0.67,2-1v-2c0.667-.33,1.333-0.67,2-1v-2c0.667-.33,1.333-0.67,2-1v-2c0.667-.33,1.333-0.67,2-1v-2h1q0.5-1.5,1-3c0.667-.33,1.333-0.67,2-1v-2c0.667-.33,1.333-0.67,2-1v-2h1q0.5-1.5,1-3c0.667-.33,1.333-0.67,2-1v-2h1q0.5-1.5,1-3c0.667-.33,1.333-0.67,2-1v-2c1-.67,2-1.33,3-2v-2c0.667-.33,1.333-0.67,2-1q0.5-1.5,1-3h1v-2c0.667-.33,1.333-0.67,2-1v-2c0.667-.33,1.333-0.67,2-1v-2c0.667-.33,1.333-0.67,2-1v-2c1-.67,2-1.33,3-2v-2c0.667-.33,1.333-0.67,2-1q0.5-1.5,1-3h1v-2c0.667-.33,1.333-0.67,2-1v-2c1-.67,2-1.33,3-2v-2c0.667-.33,1.333-0.67,2-1v-2h1q0.5-1.5,1-3c0.667-.33,1.333-0.67,2-1v-2c1-.67,2-1.33,3-2v-2h1q0.5-1.5,1-3c0.67-.33,1.33-0.67,2-1v-2c1-.67,2-1.33,3-2v-2h1c0.33-1,.67-2,1-3,0.67-.33,1.33-0.67,2-1v-2c1-.67,2-1.33,3-2v-2h1c0.33-1,.67-2,1-3,0.67-.333,1.33-0.667,2-1v-2l3-2v-2h1c0.33-1,.67-2,1-3,0.67-.333,1.33-0.667,2-1v-2l3-2v-2c0.67-.333,1.33-0.667,2-1v-2l3-2v-2c0.67-.333,1.33-0.667,2-1v-2l3-2v-2c0.67-.333,1.33-0.667,2-1v-2l3-2v-2c0.67-.333,1.33-0.667,2-1v-2l3-2v-2c0.67-.333,1.33-0.667,2-1v-2l3-2v-2c0.67-.333,1.33-0.667,2-1v-2l3-2v-2c0.67-.333,1.33-0.667,2-1v-2l3-2v-2c0.67-.333,1.33-0.667,2-1v-2l3-2v-2c0.67-.333,1.33-0.667,2-1v-2l3-2v-2c0.67-.333,1.33-0.667,2-1v-2l3-2v-2l3-2v-2c0.67-.333,1.33-0.667,2-1v-2l3-2v-2c0.67-.333,1.33-0.667,2-1v-2c0.67-.333,1.33-0.667,2-1,0.33-1,.67-2,1-3l3-2v-2c0.67-.333,1.33-0.667,2-1v-2l3-2v-2l3-2v-2c0.67-.333,1.33-0.667,2-1v-2c0.67-.333,1.33-0.667,2-1,0.33-1,.67-2,1-3l3-2v-2c0.67-.333,1.33-0.667,2-1v-2c0.67-.333,1.33-0.667,2-1,0.33-1,.67-2,1-3l3-2v-2c0.67-.333,1.33-0.667,2-1v-2c0.67-.333,1.33-0.667,2-1,0.33-1,.67-2,1-3l3-2v-2c0.67-.333,1.33-0.667,2-1v-2l3-2v-2l3-2v-2l3-2v-2c0.67-.333,1.33-0.667,2-1v-2l3-2v-2l3-2v-2l3-2v-2c0.67-.333,1.33-0.667,2-1v-2l3-2v-2l3-2v-2c0.67-.333,1.33-0.667,2-1v-2c0.67-.333,1.33-0.667,2-1,0.33-1,.67-2,1-3l3-2v-2l3-2v-2c0.67-.333,1.33-0.667,2-1v-2l3-2v-2l3-2c0.33-1,.67-2,1-3,0.67-.333,1.33-0.667,2-1v-2c0.67-.333,1.33-0.667,2-1v-2l3-2v-2l3-2v-2l3-2v-2c0.67-.333,1.33-0.667,2-1v-2c0.67-.333,1.33-0.667,2-1,0.33-1,.67-2,1-3l3-2v-2l3-2v-2c0.67-.333,1.33-0.667,2-1v-2l3-2v-2l3-2c0.33-1,.67-2,1-3,0.67-.333,1.33-0.667,2-1v-2c0.67-.333,1.33-0.667,2-1v-2l3-2v-2l3-2v-2l3-2v-2c0.67-.333,1.33-0.667,2-1v-2l3-2v-2l3-2v-2c0.67-.333,1.33-0.667,2-1v-2l3-2v-2l3-2v-2c0.67-.333,1.33-0.667,2-1v-2l3-2v-2l3-2v-2l3-2v-2c0.67-.333,1.33-0.667,2-1v-2c0.67-.333,1.33-0.667,2-1,0.33-1,.67-2,1-3l3-2v-2c0.67-.333,1.33-0.667,2-1v-2l3-2v-2c0.67-.333,1.33-0.667,2-1v-2c0.67-.333,1.33-0.667,2-1,0.33-1,.67-2,1-3l3-2v-2c0.67-.333,1.33-0.667,2-1v-2l3-2v-2c0.67-.333,1.33-0.667,2-1v-2c0.67-.333,1.33-0.667,2-1,0.33-1,.67-2,1-3l3-2v-2c0.67-.333,1.33-0.667,2-1v-2l3-2v-2c0.67-.333,1.33-0.667,2-1v-2l3-2v-2c0.67-.333,1.33-0.667,2-1v-2c0.67-.333,1.33-0.667,2-1,0.33-1,.67-2,1-3l3-2v-2c0.67-.333,1.33-0.667,2-1v-2l3-2v-2h1c0.33-1,.67-2,1-3,0.67-.333,1.33-0.667,2-1v-2l3-2v-2c0.67-.333,1.33-0.667,2-1v-2l3-2v-2c0.67-.333,1.33-0.667,2-1v-2l3-2v-2c0.67-.333,1.33-0.667,2-1v-2l3-2v-2c0.67-.333,1.33-0.667,2-1v-2c0.67-.333,1.33-0.667,2-1v-2l3-2v-2h1c0.33-1,.67-2,1-3,0.67-.333,1.33-0.667,2-1v-2l3-2v-2h1c0.33-1,.67-2,1-3,0.67-.333,1.33-0.667,2-1v-2l3-2v-2c0.67-.333,1.33-0.667,2-1v-2h1c0.33-1,.67-2,1-3,0.67-.333,1.33-0.667,2-1v-2l3-2v-2c0.67-.333,1.33-0.667,2-1v-2h1c0.33-1,.67-2,1-3,0.67-.333,1.33-0.667,2-1v-2l3-2v-2c0.67-.333,1.33-0.667,2-1,0.33-1,.67-2,1-3h1v-2c0.67-.333,1.33-0.667,2-1v-2c0.67-.333,1.33-0.667,2-1v-2c0.67-.333,1.33-0.667,2-1v-2h1c0.33-1,.67-2,1-3,0.67-.333,1.33-0.667,2-1v-2l3-2v-2c0.67-.333,1.33-0.667,2-1,0.33-1,.67-2,1-3h1v-2c0.67-.333,1.33-0.667,2-1v-2c0.67-.333,1.33-0.667,2-1v-2c0.67-.333,1.33-0.667,2-1v-2c0.67-.333,1.33-0.667,2-1v-2c0.67-.333,1.33-0.667,2-1v-2c0.67-.333,1.33-0.667,2-1v-2c0.67-.333,1.33-0.667,2-1v-2c0.67-.333,1.33-0.667,2-1,0.33-1.333.67-2.667,1-4,0.67-.333,1.33-0.667,2-1v-2c0.67-.333,1.33-0.667,2-1v-2c0.67-.333,1.33-0.667,2-1v-2h1c0.33-1,.67-2,1-3,0.67-.333,1.33-0.667,2-1v-2c0.67-.333,1.33-0.667,2-1,0.33-1,.67-2,1-3h1c0.33-1.333.67-2.667,1-4,0.67-.333,1.33-0.667,2-1v-2c0.67-.333,1.33-0.667,2-1v-2c0.67-.333,1.33-0.667,2-1,0.33-1.333.67-2.667,1-4,0.67-.333,1.33-0.667,2-1v-2c0.67-.333,1.33-0.667,2-1v-2c0.67-.333,1.33-0.667,2-1,0.33-1.333.67-2.667,1-4h1c0.33-1,.67-2,1-3,0.67-.333,1.33-0.667,2-1,0.33-1.333.67-2.667,1-4h1c0.33-1,.67-2,1-3,0.67-.333,1.33-0.667,2-1v-2h1v-2c0.67-.333,1.33-0.667,2-1,0.33-1.333.67-2.667,1-4h1c0.33-1,.67-2,1-3,0.67-.333,1.33-0.667,2-1,0.33-1.333.67-2.667,1-4,0.67-.333,1.33-0.667,2-1,0.33-1.333.67-2.667,1-4,0.67-.333,1.33-0.667,2-1,0.33-1.333.67-2.667,1-4,0.67-.333,1.33-0.667,2-1v-2h1v-2c0.67-.333,1.33-0.667,2-1,0.67-2,1.33-4,2-6,0.67-.333,1.33-0.667,2-1v-2h1v-2c0.67-.333,1.33-0.667,2-1,0.67-2,1.33-4,2-6,0.67-.333,1.33-0.667,2-1,0.67-2,1.33-4,2-6,0.67-.333,1.33-0.667,2-1,0.67-2,1.33-4,2-6,0.67-.333,1.33-0.667,2-1v-2h1v-2h1v-2h1v-2c0.67-.333,1.33-0.667,2-1,0.67-2,1.33-4,2-6h1v-2h1v-2c0.67-.333,1.33-0.667,2-1,0.67-2,1.33-4,2-6h1v-2h1v-2h1v-2h1v-2h1v-2c0.67-.333,1.33-0.667,2-1v-2h1v-2h1v-2h1v-2h1v-2h1v-2h1v-2h1v-2h1v-2h1v-2h1v-2h1c0.33-1.333.67-2.667,1-4h1v-2h1v-3h1v-2h1v-2h1v-2h1c0.67-2,1.33-4,2-6h1v-3h1v-2h1c0.67-2,1.33-4,2-6h1v-3h1c0.33-1.333.67-2.667,1-4h1v-3h1c0.33-1.333.67-2.667,1-4h1v-3h1v-2h1v-3h1v-2h1c0.33-1.667.67-3.333,1-5h1v-3h1v-2h1v-3h1v-2h1c0.67-3,1.33-6,2-9h1v-2h1q7.005-25,14-50v-5h1v-6h1v-7h1V112h1V100c0-11.313-.51-21.6-3-30V64h-1V49h1V43h1c0.67-3,1.33-6,2-9h1c0.33-1.333.67-2.667,1-4h1V28c0.67-.333,1.33-0.667,2-1V25c0.67-.333,1.33-0.667,2-1V22c1.83-2.584,3.79-1.66,5-6h2c6.79-11.786,36.76-20.895,56-14V3h3V4h2V5h3c0.33,0.667.67,1.333,1,2l4,1c0.33,0.667.67,1.333,1,2h2c6.46,4.486,11.48,11.478,17,17l15,14q3.495,4,7,8c1.33,1,2.67,2,4,3v2q4.995,4.5,10,9v2q4.005,3.5,8,7v2h1l3,4,3,2v2q3.495,3,7,6v2h1c0.67,1,1.33,2,2,3l3,2v2c1.67,1.333,3.33,2.667,5,4v2c1.67,1.333,3.33,2.667,5,4v2c1.67,1.333,3.33,2.667,5,4v2c0.67,0.333,1.33.667,2,1,0.67,1,1.33,2,2,3h1v2c1.67,1.333,3.33,2.667,5,4v2c1.33,1,2.67,2,4,3v2c1.33,1,2.67,2,4,3v2c0.67,0.333,1.33.667,2,1v1c0.67,0.333,1.33.667,2,1v2c1.67,1.333,3.33,2.667,5,4v2c1.33,1,2.67,2,4,3v2l3,2v2c1.33,1,2.67,2,4,3v2c1.33,1,2.67,2,4,3v2c0.67,0.333,1.33.667,2,1v1c0.67,0.333,1.33.667,2,1v2c0.67,0.333,1.33.667,2,1,0.33,1,.67,2,1,3,1.33,1,2.67,2,4,3v2l3,2v2c1.33,1,2.67,2,4,3v2l3,2v2l3,2v2c1.33,1,2.67,2,4,3v2l3,2v2l3,2v2l3,2v2l3,2v2l3,2v2c1.33,1,2.67,2,4,3v2l3,2c0.33,1,.67,2,1,3,0.67,0.333,1.33.667,2,1v2l3,2v2c0.67,0.333,1.33.667,2,1v2l3,2v2l3,2v2l3,2v2l3,2v2l3,2v2l3,2v2c0.67,0.333,1.33.667,2,1v2l3,2v2l3,2c0.33,1,.67,2,1,3,0.67,0.333,1.33.667,2,1v2c0.67,0.333,1.33.667,2,1v2l3,2v2c0.67,0.333,1.33.667,2,1v2c0.67,0.333,1.33.667,2,1,0.33,1,.67,2,1,3l3,2v2c0.67,0.333,1.33.667,2,1v2l3,2v2c0.67,0.333,1.33.667,2,1v2l3,2v2c0.67,0.333,1.33.667,2,1v2l3,2v2c0.67,0.333,1.33.667,2,1v2l3,2v2c0.67,0.333,1.33.667,2,1v2l3,2v2c0.67,0.333,1.33.667,2,1v2l3,2v2c0.67,0.333,1.33.667,2,1v2l3,2v2h1c0.33,1,.67,2,1,3,0.67,0.333,1.33.667,2,1v2l3,2v2h1c0.33,1,.67,2,1,3,0.67,0.333,1.33.667,2,1v2l3,2v2c0.67,0.333,1.33.667,2,1v2h1c0.33,1,.67,2,1,3,0.67,0.333,1.33.667,2,1v2l3,2v2c0.67,0.333,1.33.667,2,1v2h1c0.33,1,.67,2,1,3,0.67,0.333,1.33.667,2,1v2l3,2v2c0.67,0.333,1.33.667,2,1,0.33,1,.67,2,1,3h1v2c0.67,0.333,1.33.667,2,1v2c0.67,0.333,1.33.667,2,1v2l3,2v2c0.67,0.333,1.33.667,2,1,0.33,1,.67,2,1,3h1v2c0.67,0.333,1.33.667,2,1v2c0.67,0.333,1.33.667,2,1v2c0.67,0.333,1.33.667,2,1v2c0.67,0.333,1.33.667,2,1v2l3,2v2c0.67,0.333,1.33.667,2,1v2c0.67,0.333,1.33.667,2,1v2h1c0.33,1,.67,2,1,3,0.67,0.333,1.33.667,2,1v2c0.67,0.333,1.33.667,2,1v2c0.67,0.333,1.33.667,2,1v2c0.67,0.333,1.33.667,2,1v2c0.67,0.333,1.33.667,2,1v2c0.67,0.333,1.33.667,2,1v2c0.67,0.333,1.33.667,2,1v2h1c0.33,1,.67,2,1,3,0.67,0.333,1.33.667,2,1v2c0.67,0.333,1.33.667,2,1v2c0.67,0.333,1.33.667,2,1v2c0.67,0.333,1.33.667,2,1v2c0.67,0.333,1.33.667,2,1v2c0.67,0.333,1.33.667,2,1v2c0.67,0.333,1.33.667,2,1v2c0.67,0.333,1.33.667,2,1v2c0.67,0.333,1.33.667,2,1v2c0.67,0.333,1.33.667,2,1v2c0.67,0.333,1.33.667,2,1v2c0.67,0.333,1.33.667,2,1v2c0.67,0.333,1.33.667,2,1,0.33,1.333.67,2.667,1,4h1c0.33,1,.67,2,1,3,0.67,0.333,1.33.667,2,1v2h1c0.33,1,.67,2,1,3,0.67,0.333,1.33.667,2,1v2c0.67,0.333,1.33.667,2,1v2c0.67,0.333,1.33.667,2,1v2c0.67,0.333,1.33.667,2,1,0.33,1.333.67,2.667,1,4,0.67,0.333,1.33.667,2,1v2h1c0.33,1,.67,2,1,3,0.67,0.333,1.33.667,2,1v2c0.67,0.333,1.33.667,2,1,0.33,1,.67,2,1,3h1c0.33,1.333.67,2.667,1,4,0.67,0.333,1.33.667,2,1v2c0.67,0.333,1.33.667,2,1v2c0.67,0.333,1.33.667,2,1v2c0.67,0.333,1.33.667,2,1,0.33,1.333.67,2.667,1,4,0.67,0.333,1.33.667,2,1v2c0.67,0.333,1.33.667,2,1v2c0.67,0.333,1.33.667,2,1,0.33,1.333.67,2.667,1,4h1c0.33,1,.67,2,1,3,0.67,0.333,1.33.667,2,1v2c0.67,0.333,1.33.667,2,1,0.33,1.333.67,2.667,1,4,0.67,0.333,1.33.667,2,1v2c0.67,0.333,1.33.667,2,1,0.33,1,.67,2,1,3h1c0.33,1.333.67,2.667,1,4h1c0.33,1,.67,2,1,3,0.67,0.333,1.33.667,2,1,0.33,1.333.67,2.667,1,4,0.67,0.333,1.33.667,2,1v2c0.67,0.333,1.33.667,2,1v2c0.67,0.333,1.33.667,2,1v2h1v2c0.67,0.333,1.33.667,2,1v2c0.67,0.333,1.33.667,2,1,0.33,1.333.67,2.667,1,4h1c0.33,1,.67,2,1,3,0.67,0.333,1.33.667,2,1v2h1v2c0.67,0.333,1.33.667,2,1,0.33,1.333.67,2.667,1,4h1c0.33,1,.67,2,1,3,0.67,0.333,1.33.667,2,1,0.33,1.333.67,2.667,1,4h1c0.33,1,.67,2,1,3,0.67,0.333,1.33.667,2,1v2h1v2c0.67,0.333,1.33.667,2,1,0.33,1.333.67,2.667,1,4h1c0.33,1,.67,2,1,3,0.67,0.333,1.33.667,2,1,0.33,1.333.67,2.667,1,4,0.67,0.333,1.33.667,2,1,0.33,1.333.67,2.667,1,4,0.67,0.333,1.33.667,2,1,0.33,1.333.67,2.667,1,4,0.67,0.333,1.33.667,2,1,0.33,1.333.67,2.667,1,4h1c0.33,1,.67,2,1,3,0.67,0.333,1.33.667,2,1,0.33,1.333.67,2.667,1,4,0.67,0.333,1.33.667,2,1,0.33,1.333.67,2.667,1,4,0.67,0.333,1.33.667,2,1,0.33,1.333.67,2.667,1,4,0.67,0.333,1.33.667,2,1,0.33,1.333.67,2.667,1,4,0.67,0.333,1.33.667,2,1,0.33,1.333.67,2.667,1,4,0.67,0.333,1.33.667,2,1,0.33,1.333.67,2.667,1,4,0.67,0.333,1.33.667,2,1,0.33,1.333.67,2.667,1,4,0.67,0.333,1.33.667,2,1,0.33,1.333.67,2.667,1,4,0.67,0.333,1.33.667,2,1v2h1v2c0.67,0.333,1.33.667,2,1,0.33,1.333.67,2.667,1,4,0.67,0.333,1.33.667,2,1,0.67,2,1.33,4,2,6,0.67,0.333,1.33.667,2,1,0.33,1.333.67,2.667,1,4,0.67,0.333,1.33.667,2,1,0.33,1.333.67,2.667,1,4,0.67,0.333,1.33.667,2,1,0.33,1.333.67,2.667,1,4,0.67,0.333,1.33.667,2,1,0.67,2,1.33,4,2,6,0.67,0.333,1.33.667,2,1v2h1v2c0.67,0.333,1.33.667,2,1,0.67,2,1.33,4,2,6,0.67,0.333,1.33.667,2,1,0.67,2,1.33,4,2,6,0.67,0.333,1.33.667,2,1,0.33,1.333.67,2.667,1,4,0.67,0.333,1.33.667,2,1,0.67,2,1.33,4,2,6,0.67,0.333,1.33.667,2,1,0.67,2,1.33,4,2,6,0.67,0.333,1.33.667,2,1v2h1v2h1v2c0.67,0.333,1.33.667,2,1,0.67,2,1.33,4,2,6,0.67,0.333,1.33.667,2,1v2h1v2h1v2c0.67,0.333,1.33.667,2,1,0.67,2,1.33,4,2,6,0.67,0.333,1.33.667,2,1v2h1v2h1v2c0.67,0.333,1.33.667,2,1v2h1v2h1v2h1v2c0.67,0.333,1.33.667,2,1v2h1v2h1v2c0.67,0.333,1.33.667,2,1v2h1v2h1v2h1v2c0.67,0.333,1.33.667,2,1v2h1v2h1v2h1v2c0.67,0.333,1.33.667,2,1v2h1v2h1v2h1v2h1v2c0.67,0.333,1.33.667,2,1v2h1v2h1v2h1v2c0.67,0.333,1.33.667,2,1v2h1v2h1v2h1v2h1v2c0.67,0.333,1.33.667,2,1v2h1v2h1v2h1v2h1v2c0.67,0.333,1.33.667,2,1,0.67,2,1.33,4,2,6h1c0.67,2,1.33,4,2,6,0.67,0.333,1.33.667,2,1v2h1v2h1v2h1v2h1v2h1v2h1v2c0.67,0.333,1.33.667,2,1q3.495,8,7,16c0.67,0.333,1.33.667,2,1v2h1v2h1v2h1v2h1v2h1v2h1v2h1v2h1v2h1v2c0.67,0.333,1.33.667,2,1v2h1v2h1v2h1v2h1c0.67,2,1.33,4,2,6h1c0.33,1.333.67,2.667,1,4h1c0.33,1.333.67,2.667,1,4h1v2h1v2h1v2h1v2h1c0.67,2,1.33,4,2,6h1v2h1v2c0.67,0.33,1.33.67,2,1v2h1v2h1v2h1v2h1v2h1v2h1v2h1v2h1v2h1v2h1v2h1c0.33,1.33.67,2.67,1,4h1v2h1v3h1c0.67,2,1.33,4,2,6h1v2h1v2h1v2h1v2h1v2h1v2h1c0.33,1.33.67,2.67,1,4h1v2h1v2h1v2h1v2h1v2h1c0.33,1.33.67,2.67,1,4h1v2h1v3h1c0.67,2,1.33,4,2,6h1v2h1v2h1v2h1v2h1v2h1v2h1v3h1c0.33,1.33.67,2.67,1,4h1c0.33,1.33.67,2.67,1,4h1c0.33,1.33.67,2.67,1,4h1v3h1v2h1v2h1v2h1c0.67,2,1.33,4,2,6h1v3h1v2h1c0.67,2,1.33,4,2,6h1v3h1v2h1c0.67,2,1.33,4,2,6h1v3h1v2h1c0.33,1.33.67,2.67,1,4h1v3h1v2h1c0.67,2,1.33,4,2,6h1v3h1c0.33,1.33.67,2.67,1,4h1v3h1v2h1c0.33,1.33.67,2.67,1,4h1v3h1c0.33,1.33.67,2.67,1,4h1v3h1c0.33,1.33.67,2.67,1,4h1v3h1c0.33,1.33.67,2.67,1,4h1v3h1c0.33,1.33.67,2.67,1,4h1v3h1c0.33,1.33.67,2.67,1,4h1v3h1c0.33,1.33.67,2.67,1,4h1c0.33,1.67.67,3.33,1,5h1v3h1c0.33,1.33.67,2.67,1,4h1v3h1v2h1v3h1v2h1v3h1c0.33,1.67.67,3.33,1,5h1v2h1v3h1c0.33,1.33.67,2.67,1,4h1v3h1v2h1c0.33,2,.67,4,1,6h1v2h1v3h1v2h1c0.33,1.67.67,3.33,1,5h1v3h1v2h1c0.33,2,.67,4,1,6h1v2h1v3h1v2h1c0.33,2,.67,4,1,6h1v2h1c0.33,2,.67,4,1,6h1v2h1v3h1v3h1v2h1c0.33,2,.67,4,1,6h1v3h1v2h1v3h1v3h1v3h1v3h1v2h1q2.505,9,5,18c9.02,20.68,15.19,45.31,23,67v4h1v3h1v3h1v4h1v3h1c0.33,2.33.67,4.67,1,7h1c0.33,2.33.67,4.67,1,7h1c0.33,2.33.67,4.67,1,7h1c0.33,2.67.67,5.33,1,8C2522.98,1502.53,2525.52,1508.86,2526,1516Zm-327-161v1h-7v1c-2.67.33-5.33,0.67-8,1v1h-2v1h-3v1h-2v1h-2c-0.33.67-.67,1.33-1,2h-2c-0.33.67-.67,1.33-1,2h-2c-1,1.33-2,2.67-3,4h-2v1c-1,.67-2,1.33-3,2v2c-1.33,1-2.67,2-4,3v2c-0.67.33-1.33,0.67-2,1-0.33,1.33-.67,2.67-1,4h-1c-0.67,2-1.33,4-2,6h-1c-4.97,11.38-3.4,33.21,0,45v8h1v8h1v8h1l3,39h1v11h1v13h1v14h1v17c1.65,5.9-.69,15.93,1,22,2.41,8.64,1,22.6,1,33v62c-1.55,5.44.72,14.96-1,21h-1v16h-1v13h-1v11h-1v10h-1v9h-1q-0.495,8.505-1,17-4.995,30.495-10,61h-1c-0.33,3-.67,6-1,9h-1v5h-1v4h-1v5h-1v4h-1c-0.33,2.67-.67,5.33-1,8-1.61,4.71-3.39,11.29-5,16v4c-6.62,18.36-11.46,38.74-19,56-0.33,2-.67,4-1,6h-1v2h-1v3h-1v3h-1v2h-1v3h-1v2h-1v3h-1c-0.33,1.33-.67,2.67-1,4h-1v3h-1c-0.33,1.33-.67,2.67-1,4h-1v3h-1c-0.67,2-1.33,4-2,6h-1c-0.33,1.67-.67,3.33-1,5h-1c-0.67,2-1.33,4-2,6h-1v2h-1v2h-1v2h-1v2h-1v2h-1v2h-1v2h-1v2h-1v2h-1v2h-1v2c-0.67.33-1.33,0.67-2,1v2h-1v2h-1v2h-1v2c-0.67.33-1.33,0.67-2,1-0.67,2-1.33,4-2,6-0.67.33-1.33,0.67-2,1v2h-1v2c-0.67.33-1.33,0.67-2,1-0.33,1.33-.67,2.67-1,4-0.67.33-1.33,0.67-2,1v2h-1v2c-0.67.33-1.33,0.67-2,1v2h-1c-0.33,1-.67,2-1,3-0.67.33-1.33,0.67-2,1v2c-0.67.33-1.33,0.67-2,1v2c-0.67.33-1.33,0.67-2,1v2h-1c-0.33,1-.67,2-1,3-0.67.33-1.33,0.67-2,1v2c-1,.67-2,1.33-3,2v2c-0.67.33-1.33,0.67-2,1v2c-1,.67-2,1.33-3,2v2c-1,.67-2,1.33-3,2v2c-1,.67-2,1.33-3,2v2c-1.33,1-2.67,2-4,3v2c-1.33,1-2.67,2-4,3v2c-1.67,1.33-3.33,2.67-5,4v2q-3.495,3-7,6v2q-6,5.505-12,11v2c-1.33,1-2.67,2-4,3q-3.495,4.005-7,8h-2q-6,6.495-12,13h-2c-1.67,2-3.33,4-5,6h-2c-1.33,1.67-2.67,3.33-4,5h-2c-1,1.33-2,2.67-3,4h-2c-1,1.33-2,2.67-3,4h-2c-0.67,1-1.33,2-2,3h-2c-0.67,1-1.33,2-2,3h-2c-0.67,1-1.33,2-2,3h-2v1c-1,.33-2,0.67-3,1-0.33.67-.67,1.33-1,2h-2c-0.67,1-1.33,2-2,3h-2c-0.33.67-.67,1.33-1,2-1,.33-2,0.67-3,1v1c-1.33.33-2.67,0.67-4,1-0.33.67-.67,1.33-1,2h-2c-0.33.67-.67,1.33-1,2h-2c-0.33.67-.67,1.33-1,2-1.33.33-2.67,0.67-4,1-0.33.67-.67,1.33-1,2-2,.67-4,1.33-6,2-0.33.67-.67,1.33-1,2-2,.67-4,1.33-6,2-0.33.67-.67,1.33-1,2-1.33.33-2.67,0.67-4,1v1h-2v1h-2v1h-2v1h-2v1h-2v1c-1.33.33-2.67,0.67-4,1v1h-2v1h-2v1h-2v1h-2v1h-2v1c-1.33.33-2.67,0.67-4,1v1h-2v1h-3v1c-1.33.33-2.67,0.67-4,1v1h-3v1c-1.33.33-2.67,0.67-4,1v1h-3v1h-2v1c-1.67.33-3.33,0.67-5,1v1c-2,.33-4,0.67-6,1v1h-2v1c-2,.33-4,0.67-6,1v1h-2v1c-3,.67-6,1.33-9,2v1h-3v1h-3v1h-3v1h-3v1h-3v1h-3v1c-2.33.33-4.67,0.67-7,1v1q-5.505,1.005-11,2v1h-4c-7.17,2.45-16.44,3.74-24,6-3.67.33-7.33,0.67-11,1v1c-2,.33-4,0.67-6,1v1h-2v1h-3c-0.33.67-.67,1.33-1,2-1.33.33-2.67,0.67-4,1-0.33.67-.67,1.33-1,2h-2c-0.67,1-1.33,2-2,3h-2c-1.33,1.67-2.67,3.33-4,5-0.67.33-1.33,0.67-2,1v2c-1,.67-2,1.33-3,2v2c-0.67.33-1.33,0.67-2,1-0.33,1.33-.67,2.67-1,4h-1c-0.67,2-1.33,4-2,6h-1v3c-2.44,6.46-4.55,17.61-2,26v5h1c0.67,3,1.33,6,2,9h1v2h1v2c0.67,0.33,1.33.67,2,1,0.33,1.33.67,2.67,1,4,1,0.67,2,1.33,3,2v2c1.67,1.33,3.33,2.67,5,4,1,1.33,2,2.67,3,4h2c0.67,1,1.33,2,2,3,1.33,0.33,2.67.67,4,1,0.33,0.67.67,1.33,1,2h2v1h2v1h3v1h2v1h4v1c7.85,2.62,23.37.98,30-1h6v-1h5v-1h5v-1h4v-1h5v-1h4v-1q6-1.005,12-2v-1h3v-1c2.33-.33,4.67-0.67,7-1v-1c2.33-.33,4.67-0.67,7-1v-1h4v-1h3v-1h3v-1h3v-1h3v-1h3v-1h3v-1c3-.67,6-1.33,9-2v-1h2v-1c3-.67,6-1.33,9-2v-1h2v-1c2-.33,4-0.67,6-1v-1h2v-1h3v-1h2v-1h3v-1h2v-1h3v-1c1.33-.33,2.67-0.67,4-1v-1h3v-1c1.33-.33,2.67-0.67,4-1v-1h3v-1h2v-1c2-.67,4-1.33,6-2v-1h3v-1h2v-1c1.33-.33,2.67-0.67,4-1v-1h2v-1h2v-1h2v-1h2v-1h2v-1h2v-1h2v-1h2v-1h2v-1h2v-1h2c0.33-.67.67-1.33,1-2,1.33-.33,2.67-0.67,4-1v-1h2v-1h2v-1h2c0.33-.67.67-1.33,1-2,2-.67,4-1.33,6-2,0.33-.67.67-1.33,1-2,1.33-.33,2.67-0.67,4-1,0.33-.67.67-1.33,1-2h2v-1h2v-1c1-.33,2-0.67,3-1,0.33-.67.67-1.33,1-2,1.33-.33,2.67-0.67,4-1,0.33-.67.67-1.33,1-2h2c0.33-.67.67-1.33,1-2h2c0.33-.67.67-1.33,1-2h2c0.33-.67.67-1.33,1-2h2v-1c1-.33,2-0.67,3-1,0.33-.67.67-1.33,1-2h2v-1c1-.33,2-0.67,3-1,0.33-.67.67-1.33,1-2h2c0.33-.67.67-1.33,1-2,1-.33,2-0.67,3-1,0.67-1,1.33-2,2-3h2c0.33-.67.67-1.33,1-2h2c0.33-.67.67-1.33,1-2,1-.33,2-0.67,3-1,1-1.33,2-2.67,3-4h2c0.67-1,1.33-2,2-3h2c1-1.33,2-2.67,3-4h2c1.33-1.67,2.67-3.33,4-5h2c1.67-2,3.33-4,5-6h2q3-3.495,6-7h2q6.495-7.005,13-14h2c1-1.33,2-2.67,3-4q4.005-3.495,8-7v-2q6.495-6,13-12c0.33-1,.67-2,1-3q4.005-3.495,8-7v-2c1.67-1.33,3.33-2.67,5-4v-2c1.67-1.33,3.33-2.67,5-4v-2c1.33-1,2.67-2,4-3v-2c1.33-1,2.67-2,4-3v-2c1-.67,2-1.33,3-2v-2c1-.67,2-1.33,3-2v-2c1-.67,2-1.33,3-2v-2c1-.67,2-1.33,3-2v-2c0.67-.33,1.33-0.67,2-1v-2c1-.67,2-1.33,3-2v-2h1c0.33-1,.67-2,1-3,0.67-.33,1.33-0.67,2-1v-2c1-.67,2-1.33,3-2v-2c0.67-.33,1.33-0.67,2-1v-2c0.67-.33,1.33-0.67,2-1,0.33-1.33.67-2.67,1-4,0.67-.33,1.33-0.67,2-1v-2c0.67-.33,1.33-0.67,2-1v-2c0.67-.33,1.33-0.67,2-1,0.33-1.33.67-2.67,1-4h1c0.33-1,.67-2,1-3,0.67-.33,1.33-0.67,2-1,0.33-1.33.67-2.67,1-4,0.67-.33,1.33-0.67,2-1,0.67-2,1.33-4,2-6,0.67-.33,1.33-0.67,2-1,0.67-2,1.33-4,2-6,0.67-.33,1.33-0.67,2-1,0.67-2,1.33-4,2-6h1v-2c0.67-.33,1.33-0.67,2-1,0.33-1.33.67-2.67,1-4h1v-2h1v-2h1v-2h1v-2h1c0.33-1.33.67-2.67,1-4h1c0.33-1.33.67-2.67,1-4h1c0.33-1.33.67-2.67,1-4h1v-2h1v-2h1v-2h1v-2h1c0.33-1.33.67-2.67,1-4h1v-2h1c0.33-1.67.67-3.33,1-5h1c0.67-2,1.33-4,2-6h1v-3h1c0.33-1.33.67-2.67,1-4h1v-3h1c0.33-1.33.67-2.67,1-4h1v-3h1v-2h1c0.33-1.67.67-3.33,1-5h1v-3h1v-2h1v-3h1v-2h1c0.33-2,.67-4,1-6h1v-2h1c0.33-2,.67-4,1-6h1v-2h1q4.995-16.5,10-33h1v-4h1v-3h1v-3h1v-4c5.92-16.33,9.53-36,15-53v-5h1v-4h1v-5h1v-5h1v-5h1v-5c3.11-9.92,4.03-22.88,7-33v-7c3.15-10.7,2.86-25.02,6-36v-9h1v-9h1v-10h1v-10h1v-12h1v-14h1v-17h1v-23c1.55-5.53,1-14.85,1-22v-39c0-10.68,1.51-25.1-1-34v-24h-1v-11q-0.495-10.995-1-22h-1v-13h-1v-12h-1v-11h-1v-10h-1q-0.495-9-1-18h-1v-9h-1v-8c-2.59-8.98-2.29-21.14-5-30v-5h-1v-3h-1v-3h-1v-3h-1v-2h-1c-0.33-1.33-.67-2.67-1-4C2242.21,1367.53,2224.35,1355,2199,1355Z"/>
</svg>
